0 Tempo 1016949
4224 Tempo 895522
6144 Tempo 937500
6336 Tempo 937500
6352 Tempo 952380
6512 Tempo 967741
6528 Tempo 983606
6656 Tempo 983606
6672 Tempo 1000000
6784 Tempo 1000000
6800 Tempo 1016949
6912 Tempo 1034482
6928 Tempo 1034482
7008 Tempo 1052631
7024 Tempo 1052631
7104 Tempo 1071428
7120 Tempo 1090909
7184 Tempo 1090909
7200 Tempo 1111111
7264 Tempo 1111111
7280 Tempo 1132075
7328 Tempo 1132075
7344 Tempo 1153846
7392 Tempo 1153846
7408 Tempo 1176470
7456 Tempo 1176470
7472 Tempo 1200000
7520 Tempo 1224489
7536 Tempo 1224489
7568 Tempo 1224489
7584 Tempo 1250000
7616 Tempo 1250000
7632 Tempo 1276595
7664 Tempo 1276595
7680 Tempo 1016949
10368 Tempo 895522
12288 Tempo 983606
12512 Tempo 1000000
12528 Tempo 1000000
12704 Tempo 1016949
12720 Tempo 1034482
12864 Tempo 1034482
12880 Tempo 1052631
13008 Tempo 1052631
13024 Tempo 1071428
13136 Tempo 1090909
13152 Tempo 1090909
13232 Tempo 1090909
13248 Tempo 1111111
13344 Tempo 1132075
13360 Tempo 1132075
13424 Tempo 1153846
13440 Tempo 1153846
13504 Tempo 1176470
13520 Tempo 1176470
13584 Tempo 1200000
13600 Tempo 1200000
13648 Tempo 1224489
13664 Tempo 1224489
13712 Tempo 1250000
13728 Tempo 1250000
13776 Tempo 1276595
13792 Tempo 1276595
13808 Tempo 1276595
13824 Tempo 1034482
16512 Tempo 869565
17280 Tempo 937500
18432 Tempo 1200000
22656 Tempo 1500000
23424 Tempo 1200000
23424 Meta TrkEnd
TrkEnd
MTrk
0 Meta TrkName "Piccolo"
0 Par ch=1 c=0 v=0
0 PrCh ch=1 p=72
0 KeySig 0 major
0 Pb ch=1 v=8192
0 Par ch=1 c=64 v=0
0 Par ch=1 c=1 v=0
10664 On ch=1 n=79 v=127
10708 Off ch=1 n=79 v=0
10784 On ch=1 n=84 v=127
12384 Off ch=1 n=84 v=0
12384 Meta TrkEnd
TrkEnd
MTrk
0 Meta TrkName "Oboe 1"
0 Par ch=2 c=0 v=0
0 PrCh ch=2 p=68
0 KeySig 0 major
0 Par ch=2 c=7 v=80
0 Pb ch=2 v=8192
0 Par ch=2 c=64 v=0
0 Par ch=2 c=1 v=0
0 Meta TrkEnd
TrkEnd
MTrk
0 Meta TrkName "Organ"
0 Par ch=3 c=0 v=0
0 PrCh ch=3 p=70
0 Par ch=3 c=10 v=90
0 KeySig 0 major
0 Par ch=3 c=7 v=15
0 Pb ch=3 v=8192
0 Par ch=3 c=64 v=0
0 Par ch=3 c=1 v=0
36 On ch=3 n=24 v=127
5056 Off ch=3 n=24 v=0
5056 Meta TrkEnd
TrkEnd
MTrk
0 Meta TrkName "French Horn 4"
0 Par ch=4 c=0 v=0
0 PrCh ch=4 p=60
0 Par ch=4 c=10 v=45
0 KeySig 0 major
4516 On ch=4 n=55 v=127
4588 Off ch=4 n=55 v=0
4672 On ch=4 n=55 v=127
6224 Off ch=4 n=55 v=0
16976 On ch=4 n=60 v=72
18396 Off ch=4 n=60 v=0
20408 On ch=4 n=67 v=127
20540 Off ch=4 n=67 v=0
20592 On ch=4 n=64 v=127
20696 Off ch=4 n=64 v=0
20772 On ch=4 n=60 v=127
20864 Off ch=4 n=60 v=0
20952 On ch=4 n=55 v=127
21044 Off ch=4 n=55 v=0
21124 On ch=4 n=52 v=127
21228 Off ch=4 n=52 v=0
21316 On ch=4 n=48 v=127
21416 Off ch=4 n=48 v=0
21504 On ch=4 n=43 v=127
22216 Off ch=4 n=43 v=0
22300 On ch=4 n=45 v=127
22688 Off ch=4 n=45 v=0
22716 On ch=4 n=43 v=127
23160 Off ch=4 n=43 v=0
23208 On ch=4 n=48 v=127
26164 Off ch=4 n=48 v=0
26164 Meta TrkEnd
TrkEnd
MTrk
0 Meta TrkName "French Horn 1"
0 Par ch=4 c=0 v=0
0 PrCh ch=4 p=60
0 Par ch=4 c=10 v=45
0 KeySig 0 major
0 Par ch=4 c=7 v=73
0 Pb ch=4 v=8192
0 Par ch=4 c=64 v=0
0 Par ch=4 c=1 v=0
1516 Par ch=4 c=7 v=67
1528 Par ch=4 c=7 v=66
1532 On ch=4 n=60 v=127
1544 Par ch=4 c=7 v=64
1556 Par ch=4 c=7 v=62
1568 Par ch=4 c=7 v=60
1584 Par ch=4 c=7 v=59
1600 Par ch=4 c=7 v=58
1656 Par ch=4 c=7 v=57
1672 Par ch=4 c=7 v=56
1696 Par ch=4 c=7 v=55
1756 Par ch=4 c=7 v=56
1784 Par ch=4 c=7 v=55
1812 Par ch=4 c=7 v=56
1868 Par ch=4 c=7 v=55
1896 Par ch=4 c=7 v=56
1924 Par ch=4 c=7 v=55
1984 Par ch=4 c=7 v=56
2036 Par ch=4 c=7 v=55
2064 Par ch=4 c=7 v=56
2244 Off ch=4 n=60 v=0
2328 On ch=4 n=67 v=127
2992 Par ch=4 c=7 v=57
3020 Off ch=4 n=67 v=0
3020 Par ch=4 c=7 v=58
3048 Par ch=4 c=7 v=59
3088 Par ch=4 c=7 v=65
3100 On ch=4 n=72 v=127
3120 Par ch=4 c=7 v=66
3148 Par ch=4 c=7 v=67
3376 Par ch=4 c=7 v=65
3388 Par ch=4 c=7 v=64
3428 Par ch=4 c=7 v=63
3444 Par ch=4 c=7 v=62
3488 Par ch=4 c=7 v=60
3516 Par ch=4 c=7 v=59
3544 Par ch=4 c=7 v=60
3556 Par ch=4 c=7 v=61
3572 Par ch=4 c=7 v=62
3584 Par ch=4 c=7 v=63
3600 Par ch=4 c=7 v=64
3616 Par ch=4 c=7 v=65
3644 Par ch=4 c=7 v=66
3672 Par ch=4 c=7 v=67
3700 Par ch=4 c=7 v=68
3728 Par ch=4 c=7 v=69
3760 Par ch=4 c=7 v=70
3772 Par ch=4 c=7 v=71
3784 Par ch=4 c=7 v=72
3800 Par ch=4 c=7 v=73
3812 Par ch=4 c=7 v=74
3828 Par ch=4 c=7 v=75
3840 Par ch=4 c=7 v=76
3856 Par ch=4 c=7 v=77
3872 Par ch=4 c=7 v=78
3900 Par ch=4 c=7 v=79
3916 Par ch=4 c=7 v=80
3928 Par ch=4 c=7 v=82
3944 Par ch=4 c=7 v=83
3956 Par ch=4 c=7 v=84
3972 Par ch=4 c=7 v=86
3984 Par ch=4 c=7 v=87
4000 Par ch=4 c=7 v=88
4016 Par ch=4 c=7 v=90
4028 Par ch=4 c=7 v=91
4056 Par ch=4 c=7 v=92
4072 Par ch=4 c=7 v=93
4084 Par ch=4 c=7 v=95
4096 Par ch=4 c=7 v=96
4112 Par ch=4 c=7 v=97
4128 Par ch=4 c=7 v=99
4156 Par ch=4 c=7 v=100
4172 Par ch=4 c=7 v=101
4184 Par ch=4 c=7 v=102
4196 Par ch=4 c=7 v=103
4212 Par ch=4 c=7 v=104
4224 PrCh ch=4 p=60
4224 Par ch=4 c=7 v=105
4240 Par ch=4 c=7 v=107
4256 Par ch=4 c=7 v=108
4268 Par ch=4 c=7 v=109
4284 Par ch=4 c=7 v=110
4312 Par ch=4 c=7 v=111
4340 Par ch=4 c=7 v=113
4352 Par ch=4 c=7 v=114
4368 Par ch=4 c=7 v=116
4372 Off ch=4 n=72 v=0
4384 Par ch=4 c=7 v=117
4396 Par ch=4 c=7 v=119
4412 Par ch=4 c=7 v=120
4424 Par ch=4 c=7 v=118
4436 Par ch=4 c=7 v=114
4452 Par ch=4 c=7 v=108
4464 Par ch=4 c=7 v=101
4480 Par ch=4 c=7 v=92
4496 Par ch=4 c=7 v=85
4496 On ch=4 n=67 v=127
4496 On ch=4 n=64 v=127
4496 On ch=4 n=60 v=127
4512 Par ch=4 c=7 v=80
4524 Par ch=4 c=7 v=77
4536 Par ch=4 c=7 v=76
4540 Off ch=4 n=60 v=0
4544 Off ch=4 n=64 v=0
4552 Off ch=4 n=67 v=0
4580 Par ch=4 c=7 v=77
4608 Par ch=4 c=7 v=78
4652 Par ch=4 c=7 v=79
4656 On ch=4 n=67 v=127
4656 On ch=4 n=60 v=127
4656 On ch=4 n=63 v=127
4668 Par ch=4 c=7 v=80
4680 Par ch=4 c=7 v=82
4692 Par ch=4 c=7 v=84
4708 Par ch=4 c=7 v=85
4724 Par ch=4 c=7 v=86
4848 Par ch=4 c=7 v=85
5192 Par ch=4 c=7 v=84
5204 Par ch=4 c=7 v=83
5232 Par ch=4 c=7 v=82
5264 Par ch=4 c=7 v=81
5276 Par ch=4 c=7 v=80
5292 Par ch=4 c=7 v=79
5304 Par ch=4 c=7 v=78
5320 Par ch=4 c=7 v=77
5332 Par ch=4 c=7 v=76
5348 Par ch=4 c=7 v=75
5360 Par ch=4 c=7 v=73
5376 Par ch=4 c=7 v=72
5404 Par ch=4 c=7 v=70
5420 Par ch=4 c=7 v=69
5432 Par ch=4 c=7 v=68
5444 Par ch=4 c=7 v=67
5460 Par ch=4 c=7 v=66
5488 Par ch=4 c=7 v=65
5504 Par ch=4 c=7 v=64
5520 Par ch=4 c=7 v=62
5532 Par ch=4 c=7 v=61
5544 Par ch=4 c=7 v=59
5560 Par ch=4 c=7 v=58
5576 Par ch=4 c=7 v=57
5588 Par ch=4 c=7 v=56
5604 Par ch=4 c=7 v=54
5616 Par ch=4 c=7 v=53
5648 Par ch=4 c=7 v=52
5688 Par ch=4 c=7 v=53
5744 Par ch=4 c=7 v=54
5760 Par ch=4 c=7 v=55
5776 Par ch=4 c=7 v=57
5788 Par ch=4 c=7 v=59
5804 Par ch=4 c=7 v=62
5816 Par ch=4 c=7 v=63
5832 Par ch=4 c=7 v=65
5844 Par ch=4 c=7 v=66
5856 Par ch=4 c=7 v=67
5872 Par ch=4 c=7 v=69
5888 Par ch=4 c=7 v=70
5904 Par ch=4 c=7 v=71
5916 Par ch=4 c=7 v=73
5932 Par ch=4 c=7 v=74
5944 Par ch=4 c=7 v=76
5960 Par ch=4 c=7 v=77
5972 Par ch=4 c=7 v=78
5984 Par ch=4 c=7 v=79
6000 Par ch=4 c=7 v=80
6016 Par ch=4 c=7 v=81
6032 Par ch=4 c=7 v=83
6044 Par ch=4 c=7 v=84
6060 Par ch=4 c=7 v=86
6072 Par ch=4 c=7 v=88
6088 Par ch=4 c=7 v=90
6100 Par ch=4 c=7 v=92
6112 Par ch=4 c=7 v=94
6128 Par ch=4 c=7 v=96
6144 Par ch=4 c=7 v=98
6156 Par ch=4 c=7 v=99
6168 Par ch=4 c=7 v=101
6180 Par ch=4 c=7 v=103
6192 Par ch=4 c=7 v=104
6208 Par ch=4 c=7 v=112
6224 Par ch=4 c=7 v=113
6236 Par ch=4 c=7 v=114
6240 Off ch=4 n=60 v=0
6240 Off ch=4 n=67 v=0
6248 Off ch=4 n=63 v=0
6248 Par ch=4 c=7 v=116
6272 Par ch=4 c=7 v=115
6288 Par ch=4 c=7 v=113
6304 Par ch=4 c=7 v=110
6316 Par ch=4 c=7 v=105
6328 Par ch=4 c=7 v=102
6340 Par ch=4 c=7 v=98
6352 Par ch=4 c=7 v=96
6368 Par ch=4 c=7 v=94
6380 Par ch=4 c=7 v=93
6392 Par ch=4 c=7 v=92
6420 Par ch=4 c=7 v=91
6432 Par ch=4 c=7 v=90
6448 Par ch=4 c=7 v=89
6460 Par ch=4 c=7 v=88
6472 Par ch=4 c=7 v=87
6484 Par ch=4 c=7 v=86
6652 Par ch=4 c=7 v=85
6664 Par ch=4 c=7 v=84
6676 Par ch=4 c=7 v=83
6688 Par ch=4 c=7 v=82
6724 Par ch=4 c=7 v=81
6788 Par ch=4 c=7 v=80
6824 Par ch=4 c=7 v=81
7216 Par ch=4 c=7 v=79
7280 Par ch=4 c=7 v=78
7600 Par ch=4 c=7 v=76
7632 Par ch=4 c=7 v=77
7668 Par ch=4 c=7 v=76
7704 On ch=4 n=60 v=127
8328 Off ch=4 n=60 v=0
8404 Par ch=4 c=7 v=79
8416 Par ch=4 c=7 v=80
8448 On ch=4 n=67 v=127
8480 Par ch=4 c=7 v=81
9132 Off ch=4 n=67 v=0
9168 Par ch=4 c=7 v=83
9184 Par ch=4 c=7 v=84
9188 On ch=4 n=72 v=127
9208 Par ch=4 c=7 v=85
9232 Par ch=4 c=7 v=86
9260 Par ch=4 c=7 v=84
9272 Par ch=4 c=7 v=81
9284 Par ch=4 c=7 v=78
9296 Par ch=4 c=7 v=76
9312 Par ch=4 c=7 v=75
9324 Par ch=4 c=7 v=74
9336 Par ch=4 c=7 v=73
9364 Par ch=4 c=7 v=71
9376 Par ch=4 c=7 v=69
9392 Par ch=4 c=7 v=66
9400 Par ch=4 c=7 v=64
9412 Par ch=4 c=7 v=63
9424 Par ch=4 c=7 v=62
9488 Par ch=4 c=7 v=63
9504 Par ch=4 c=7 v=64
9516 Par ch=4 c=7 v=65
9528 Par ch=4 c=7 v=67
9540 Par ch=4 c=7 v=68
9568 Par ch=4 c=7 v=69
9580 Par ch=4 c=7 v=70
9592 Par ch=4 c=7 v=71
9604 Par ch=4 c=7 v=72
9616 Par ch=4 c=7 v=73
9656 Par ch=4 c=7 v=75
9668 Par ch=4 c=7 v=76
9680 Par ch=4 c=7 v=77
9720 Par ch=4 c=7 v=78
9732 Par ch=4 c=7 v=79
9760 Par ch=4 c=7 v=80
9772 Par ch=4 c=7 v=81
9796 Par ch=4 c=7 v=82
9808 Par ch=4 c=7 v=83
9824 Par ch=4 c=7 v=84
9848 Par ch=4 c=7 v=85
9872 Par ch=4 c=7 v=86
9888 Par ch=4 c=7 v=87
9900 Par ch=4 c=7 v=88
9924 Par ch=4 c=7 v=89
9936 Par ch=4 c=7 v=90
9948 Par ch=4 c=7 v=91
9960 Par ch=4 c=7 v=92
9976 Par ch=4 c=7 v=93
9988 Par ch=4 c=7 v=94
10000 Par ch=4 c=7 v=95
10016 Par ch=4 c=7 v=96
10024 Par ch=4 c=7 v=98
10048 Par ch=4 c=7 v=99
10064 Par ch=4 c=7 v=100
10076 Par ch=4 c=7 v=101
10088 Par ch=4 c=7 v=102
10104 Par ch=4 c=7 v=103
10116 Par ch=4 c=7 v=104
10144 Par ch=4 c=7 v=106
10180 Par ch=4 c=7 v=107
10192 Par ch=4 c=7 v=108
10220 Par ch=4 c=7 v=109
10228 Par ch=4 c=7 v=110
10244 Par ch=4 c=7 v=111
10284 Par ch=4 c=7 v=112
10296 Par ch=4 c=7 v=113
10304 Par ch=4 c=7 v=114
10344 Par ch=4 c=7 v=115
10356 Par ch=4 c=7 v=116
10368 Par ch=4 c=7 v=117
10384 Par ch=4 c=7 v=118
10396 Par ch=4 c=7 v=119
10484 Par ch=4 c=7 v=118
10496 Par ch=4 c=7 v=115
10512 Par ch=4 c=7 v=111
10520 Off ch=4 n=72 v=0
10524 Par ch=4 c=7 v=105
10536 Par ch=4 c=7 v=100
10548 Par ch=4 c=7 v=95
10560 Par ch=4 c=7 v=91
10576 Par ch=4 c=7 v=89
10588 Par ch=4 c=7 v=88
10600 Par ch=4 c=7 v=87
10624 Par ch=4 c=7 v=86
10660 On ch=4 n=67 v=127
10660 On ch=4 n=63 v=127
10660 On ch=4 n=60 v=127
10664 Par ch=4 c=7 v=87
10676 Par ch=4 c=7 v=86
10688 Par ch=4 c=7 v=85
10696 Off ch=4 n=60 v=0
10704 Off ch=4 n=63 v=0
10712 Off ch=4 n=67 v=0
10728 Par ch=4 c=7 v=86
10740 Par ch=4 c=7 v=88
10752 Par ch=4 c=7 v=91
10768 Par ch=4 c=7 v=94
10780 Par ch=4 c=7 v=95
10792 Par ch=4 c=7 v=96
10792 On ch=4 n=67 v=127
10792 On ch=4 n=60 v=127
10796 On ch=4 n=64 v=127
10804 Par ch=4 c=7 v=98
10816 Par ch=4 c=7 v=100
10832 Par ch=4 c=7 v=102
10844 Par ch=4 c=7 v=103
10868 Par ch=4 c=7 v=102
10880 Par ch=4 c=7 v=100
10896 Par ch=4 c=7 v=99
10912 Par ch=4 c=7 v=98
10984 Par ch=4 c=7 v=97
11024 Par ch=4 c=7 v=96
11112 Par ch=4 c=7 v=95
11124 Par ch=4 c=7 v=94
11152 Par ch=4 c=7 v=93
11176 Par ch=4 c=7 v=92
11200 Par ch=4 c=7 v=91
11252 Par ch=4 c=7 v=89
11264 Par ch=4 c=7 v=88
11292 Par ch=4 c=7 v=87
11328 Par ch=4 c=7 v=86
11368 Par ch=4 c=7 v=85
11404 Par ch=4 c=7 v=84
11432 Par ch=4 c=7 v=83
11444 Par ch=4 c=7 v=82
11472 Par ch=4 c=7 v=81
11484 Par ch=4 c=7 v=80
11504 Par ch=4 c=7 v=79
11520 Par ch=4 c=7 v=78
11548 Par ch=4 c=7 v=77
11568 Par ch=4 c=7 v=76
11584 Par ch=4 c=7 v=75
11596 Par ch=4 c=7 v=74
11608 Par ch=4 c=7 v=73
11636 Par ch=4 c=7 v=72
11664 Par ch=4 c=7 v=71
11688 Par ch=4 c=7 v=70
11700 Par ch=4 c=7 v=69
11764 Par ch=4 c=7 v=70
11776 Par ch=4 c=7 v=71
11788 Par ch=4 c=7 v=72
11800 Par ch=4 c=7 v=74
11816 Par ch=4 c=7 v=75
11828 Par ch=4 c=7 v=76
11840 Par ch=4 c=7 v=77
11852 Par ch=4 c=7 v=78
11864 Par ch=4 c=7 v=80
11876 Par ch=4 c=7 v=81
11916 Par ch=4 c=7 v=82
11928 Par ch=4 c=7 v=83
11940 Par ch=4 c=7 v=84
11952 Par ch=4 c=7 v=85
11968 Par ch=4 c=7 v=86
11980 Par ch=4 c=7 v=87
11992 Par ch=4 c=7 v=88
12016 Par ch=4 c=7 v=89
12032 Par ch=4 c=7 v=91
12044 Par ch=4 c=7 v=92
12056 Par ch=4 c=7 v=93
12068 Par ch=4 c=7 v=94
12080 Par ch=4 c=7 v=95
12096 Par ch=4 c=7 v=96
12108 Par ch=4 c=7 v=97
12120 Par ch=4 c=7 v=98
12144 Par ch=4 c=7 v=99
12160 Par ch=4 c=7 v=100
12172 Par ch=4 c=7 v=101
12196 Par ch=4 c=7 v=103
12208 Par ch=4 c=7 v=104
12224 Par ch=4 c=7 v=106
12236 Par ch=4 c=7 v=107
12272 Par ch=4 c=7 v=108
12300 Par ch=4 c=7 v=109
12336 Par ch=4 c=7 v=110
12348 Par ch=4 c=7 v=111
12364 Off ch=4 n=60 v=0
12364 Off ch=4 n=67 v=0
12368 Off ch=4 n=64 v=0
12372 Par ch=4 c=7 v=112
12416 Par ch=4 c=7 v=113
12448 Par ch=4 c=7 v=111
12464 Par ch=4 c=7 v=108
12476 Par ch=4 c=7 v=105
12488 Par ch=4 c=7 v=101
12500 Par ch=4 c=7 v=97
12512 Par ch=4 c=7 v=95
12528 Par ch=4 c=7 v=94
12540 Par ch=4 c=7 v=92
12552 Par ch=4 c=7 v=90
12564 Par ch=4 c=7 v=89
12576 Par ch=4 c=7 v=87
12588 Par ch=4 c=7 v=86
12600 Par ch=4 c=7 v=85
12624 Par ch=4 c=7 v=84
12640 Par ch=4 c=7 v=83
12652 Par ch=4 c=7 v=82
12664 Par ch=4 c=7 v=81
12676 Par ch=4 c=7 v=80
12724 Par ch=4 c=7 v=79
12760 Par ch=4 c=7 v=80
13164 Par ch=4 c=7 v=78
13184 Par ch=4 c=7 v=79
13312 Par ch=4 c=7 v=78
13824 On ch=4 n=60 v=127
14232 Par ch=4 c=7 v=86
14296 Par ch=4 c=7 v=87
14400 Par ch=4 c=7 v=88
14448 Par ch=4 c=7 v=89
14472 Off ch=4 n=60 v=0
14472 Par ch=4 c=7 v=90
14540 Par ch=4 c=7 v=91
14592 On ch=4 n=67 v=127
14604 Par ch=4 c=7 v=92
14640 Par ch=4 c=7 v=91
15152 Par ch=4 c=7 v=93
15188 Par ch=4 c=7 v=94
15248 Par ch=4 c=7 v=92
15264 Par ch=4 c=7 v=91
15280 Par ch=4 c=7 v=90
15292 Par ch=4 c=7 v=87
15296 Off ch=4 n=67 v=0
15304 Par ch=4 c=7 v=85
15316 Par ch=4 c=7 v=84
15328 Par ch=4 c=7 v=83
15344 Par ch=4 c=7 v=82
15356 Par ch=4 c=7 v=81
15360 On ch=4 n=72 v=127
15408 Par ch=4 c=7 v=80
15724 Par ch=4 c=7 v=78
15916 Par ch=4 c=7 v=84
15928 Par ch=4 c=7 v=85
15940 Par ch=4 c=7 v=86
15952 Par ch=4 c=7 v=87
15968 Par ch=4 c=7 v=88
15980 Par ch=4 c=7 v=89
15992 Par ch=4 c=7 v=90
16004 Par ch=4 c=7 v=91
16016 Par ch=4 c=7 v=92
16044 Par ch=4 c=7 v=93
16056 Par ch=4 c=7 v=94
16068 Par ch=4 c=7 v=95
16096 Par ch=4 c=7 v=96
16108 Par ch=4 c=7 v=97
16120 Par ch=4 c=7 v=98
16132 Par ch=4 c=7 v=99
16160 Par ch=4 c=7 v=100
16196 Par ch=4 c=7 v=102
16236 Par ch=4 c=7 v=103
16260 Par ch=4 c=7 v=104
16288 Par ch=4 c=7 v=105
16324 Par ch=4 c=7 v=106
16364 Par ch=4 c=7 v=107
16416 Par ch=4 c=7 v=108
16440 Par ch=4 c=7 v=109
16464 Par ch=4 c=7 v=110
16500 Par ch=4 c=7 v=111
16556 Par ch=4 c=7 v=112
16576 Par ch=4 c=7 v=113
16616 Par ch=4 c=7 v=114
16668 Par ch=4 c=7 v=112
16680 Par ch=4 c=7 v=109
16684 Off ch=4 n=72 v=0
16692 Par ch=4 c=7 v=104
16704 Par ch=4 c=7 v=100
16720 Par ch=4 c=7 v=96
16732 Par ch=4 c=7 v=93
16744 Par ch=4 c=7 v=91
16756 Par ch=4 c=7 v=89
16768 Par ch=4 c=7 v=87
16784 Par ch=4 c=7 v=84
16796 Par ch=4 c=7 v=82
16808 Par ch=4 c=7 v=79
16816 On ch=4 n=64 v=127
16816 On ch=4 n=60 v=127
16824 Par ch=4 c=7 v=77
16836 Par ch=4 c=7 v=75
16848 Par ch=4 c=7 v=74
16872 Par ch=4 c=7 v=75
16876 Off ch=4 n=60 v=0
16880 Off ch=4 n=64 v=0
16884 Par ch=4 c=7 v=76
16896 Par ch=4 c=7 v=77
16912 Par ch=4 c=7 v=79
16924 Par ch=4 c=7 v=82
16936 Par ch=4 c=7 v=85
16940 On ch=4 n=65 v=127
16940 On ch=4 n=69 v=127
16948 Par ch=4 c=7 v=89
16960 Par ch=4 c=7 v=94
16976 Par ch=4 c=7 v=100
16988 Par ch=4 c=7 v=104
17000 Par ch=4 c=7 v=107
17012 Par ch=4 c=7 v=108
17040 Par ch=4 c=7 v=107
17076 Par ch=4 c=7 v=106
17088 Par ch=4 c=7 v=105
17116 Par ch=4 c=7 v=104
17244 Par ch=4 c=7 v=103
17296 Par ch=4 c=7 v=102
17384 Par ch=4 c=7 v=101
17560 Par ch=4 c=7 v=100
17588 Par ch=4 c=7 v=99
17600 Par ch=4 c=7 v=97
17616 Par ch=4 c=7 v=96
17628 Par ch=4 c=7 v=95
17640 Par ch=4 c=7 v=94
17652 Par ch=4 c=7 v=93
17664 Par ch=4 c=7 v=92
17676 Par ch=4 c=7 v=90
17688 Par ch=4 c=7 v=89
17700 Par ch=4 c=7 v=88
17716 Par ch=4 c=7 v=86
17728 Par ch=4 c=7 v=84
17744 Par ch=4 c=7 v=82
17752 Par ch=4 c=7 v=79
17764 Par ch=4 c=7 v=77
17776 Par ch=4 c=7 v=74
17792 Par ch=4 c=7 v=71
17804 Par ch=4 c=7 v=69
17828 Par ch=4 c=7 v=68
17840 Par ch=4 c=7 v=67
17868 Par ch=4 c=7 v=66
17932 Par ch=4 c=7 v=67
17944 Par ch=4 c=7 v=68
17956 Par ch=4 c=7 v=70
17968 Par ch=4 c=7 v=72
17984 Par ch=4 c=7 v=74
17996 Par ch=4 c=7 v=75
18008 Par ch=4 c=7 v=77
18020 Par ch=4 c=7 v=78
18032 Par ch=4 c=7 v=79
18048 Par ch=4 c=7 v=81
18060 Par ch=4 c=7 v=83
18072 Par ch=4 c=7 v=85
18084 Par ch=4 c=7 v=87
18096 Par ch=4 c=7 v=88
18112 Par ch=4 c=7 v=89
18124 Par ch=4 c=7 v=90
18136 Par ch=4 c=7 v=91
18148 Par ch=4 c=7 v=92
18160 Par ch=4 c=7 v=93
18176 Par ch=4 c=7 v=94
18188 Par ch=4 c=7 v=96
18200 Par ch=4 c=7 v=97
18212 Par ch=4 c=7 v=98
18224 Par ch=4 c=7 v=100
18240 Par ch=4 c=7 v=101
18252 Par ch=4 c=7 v=102
18276 Par ch=4 c=7 v=104
18288 Par ch=4 c=7 v=105
18300 Par ch=4 c=7 v=106
18312 Par ch=4 c=7 v=107
18336 Off ch=4 n=65 v=0
18336 Off ch=4 n=69 v=0
18352 Par ch=4 c=7 v=108
18368 Par ch=4 c=7 v=109
18380 Par ch=4 c=7 v=110
18416 Par ch=4 c=7 v=111
18432 Par ch=4 c=7 v=112
18604 Par ch=4 c=7 v=112
20080 On ch=4 n=64 v=84
20080 On ch=4 n=60 v=93
20224 Off ch=4 n=60 v=0
20240 Off ch=4 n=64 v=0
20256 On ch=4 n=62 v=125
20256 On ch=4 n=65 v=127
20408 Off ch=4 n=62 v=0
20420 Off ch=4 n=65 v=0
20460 On ch=4 n=67 v=120
20460 On ch=4 n=64 v=120
21232 Off ch=4 n=67 v=0
21232 Off ch=4 n=64 v=0
21312 On ch=4 n=67 v=127
21344 On ch=4 n=64 v=84
21344 On ch=4 n=60 v=58
21360 Off ch=4 n=67 v=0
21424 Off ch=4 n=60 v=0
21424 On ch=4 n=67 v=127
21432 On ch=4 n=65 v=55
21432 On ch=4 n=62 v=48
21440 Off ch=4 n=64 v=0
21472 Off ch=4 n=67 v=0
21492 Off ch=4 n=62 v=0
21508 Off ch=4 n=65 v=0
21532 On ch=4 n=67 v=127
21544 On ch=4 n=67 v=79
21544 On ch=4 n=64 v=96
22172 Off ch=4 n=64 v=0
22224 Off ch=4 n=67 v=0
22228 Off ch=4 n=67 v=0
22284 On ch=4 n=64 v=111
22284 On ch=4 n=69 v=108
22288 On ch=4 n=60 v=127
22472 Par ch=4 c=7 v=103
22500 Par ch=4 c=7 v=102
22524 Par ch=4 c=7 v=101
22552 Par ch=4 c=7 v=100
22656 Par ch=4 c=7 v=99
22672 Off ch=4 n=64 v=0
22680 Off ch=4 n=60 v=0
22696 Off ch=4 n=69 v=0
22716 On ch=4 n=62 v=127
22720 On ch=4 n=67 v=127
22720 On ch=4 n=71 v=127
22788 Par ch=4 c=7 v=98
23076 Par ch=4 c=7 v=96
23120 Par ch=4 c=7 v=95
23128 Par ch=4 c=7 v=94
23148 Off ch=4 n=62 v=0
23156 Off ch=4 n=67 v=0
23156 Off ch=4 n=71 v=0
23160 Par ch=4 c=7 v=93
23176 On ch=4 n=67 v=127
23176 On ch=4 n=64 v=127
23176 On ch=4 n=60 v=127
23264 Par ch=4 c=7 v=92
23272 Par ch=4 c=7 v=90
23280 Par ch=4 c=7 v=89
23316 Par ch=4 c=7 v=90
23388 Par ch=4 c=7 v=89
23408 Par ch=4 c=7 v=88
23420 Par ch=4 c=7 v=87
23428 Par ch=4 c=7 v=86
23440 Par ch=4 c=7 v=85
23448 Par ch=4 c=7 v=84
23456 Par ch=4 c=7 v=83
23520 Par ch=4 c=7 v=84
23532 Par ch=4 c=7 v=85
23552 Par ch=4 c=7 v=86
23644 Par ch=4 c=7 v=87
23664 Par ch=4 c=7 v=88
23788 Par ch=4 c=7 v=83
23808 Par ch=4 c=7 v=82
23828 Par ch=4 c=7 v=81
23840 Par ch=4 c=7 v=80
23848 Par ch=4 c=7 v=79
23872 Par ch=4 c=7 v=78
23912 Par ch=4 c=7 v=77
23944 Par ch=4 c=7 v=76
23964 Par ch=4 c=7 v=75
23996 Par ch=4 c=7 v=74
24036 Par ch=4 c=7 v=73
24064 Par ch=4 c=7 v=72
24128 Par ch=4 c=7 v=71
24220 Par ch=4 c=7 v=70
24272 Par ch=4 c=7 v=69
24304 Par ch=4 c=7 v=68
24336 Par ch=4 c=7 v=67
24352 Par ch=4 c=7 v=66
24376 Par ch=4 c=7 v=65
24396 Par ch=4 c=7 v=64
24404 Par ch=4 c=7 v=63
24428 Par ch=4 c=7 v=62
24448 Par ch=4 c=7 v=61
24480 Par ch=4 c=7 v=60
24488 Par ch=4 c=7 v=59
24508 Par ch=4 c=7 v=58
24516 Par ch=4 c=7 v=57
24540 Par ch=4 c=7 v=56
24560 Par ch=4 c=7 v=55
24580 Par ch=4 c=7 v=54
24592 Par ch=4 c=7 v=53
24604 Par ch=4 c=7 v=52
24612 Par ch=4 c=7 v=51
24624 Par ch=4 c=7 v=50
24656 Par ch=4 c=7 v=49
24664 Par ch=4 c=7 v=48
24672 Par ch=4 c=7 v=47
24684 Par ch=4 c=7 v=46
24692 Par ch=4 c=7 v=45
24704 Par ch=4 c=7 v=44
24716 Par ch=4 c=7 v=43
24736 Par ch=4 c=7 v=42
24744 Par ch=4 c=7 v=41
24756 Par ch=4 c=7 v=40
24768 Par ch=4 c=7 v=39
24776 Par ch=4 c=7 v=38
24784 Par ch=4 c=7 v=37
24808 Par ch=4 c=7 v=36
24816 Par ch=4 c=7 v=35
24860 Par ch=4 c=7 v=34
24868 Par ch=4 c=7 v=32
24880 Par ch=4 c=7 v=31
24900 Par ch=4 c=7 v=30
24940 Par ch=4 c=7 v=29
24952 Par ch=4 c=7 v=28
24960 Par ch=4 c=7 v=27
25012 Par ch=4 c=7 v=28
25032 Par ch=4 c=7 v=29
25044 Par ch=4 c=7 v=30
25056 Par ch=4 c=7 v=31
25084 Par ch=4 c=7 v=32
25116 Par ch=4 c=7 v=33
25148 Par ch=4 c=7 v=34
25156 Par ch=4 c=7 v=35
25168 Par ch=4 c=7 v=36
25180 Par ch=4 c=7 v=37
25188 Par ch=4 c=7 v=38
25200 Par ch=4 c=7 v=39
25208 Par ch=4 c=7 v=41
25216 Par ch=4 c=7 v=42
25232 Par ch=4 c=7 v=43
25248 Par ch=4 c=7 v=44
25260 Par ch=4 c=7 v=45
25272 Par ch=4 c=7 v=46
25280 Par ch=4 c=7 v=48
25292 Par ch=4 c=7 v=49
25300 Par ch=4 c=7 v=50
25312 Par ch=4 c=7 v=52
25324 Par ch=4 c=7 v=53
25332 Par ch=4 c=7 v=55
25352 Par ch=4 c=7 v=57
25360 Par ch=4 c=7 v=58
25376 Par ch=4 c=7 v=60
25384 Par ch=4 c=7 v=61
25392 Par ch=4 c=7 v=62
25404 Par ch=4 c=7 v=63
25412 Par ch=4 c=7 v=65
25424 Par ch=4 c=7 v=66
25436 Par ch=4 c=7 v=67
25444 Par ch=4 c=7 v=69
25464 Par ch=4 c=7 v=71
25476 Par ch=4 c=7 v=73
25488 Par ch=4 c=7 v=74
25496 Par ch=4 c=7 v=76
25504 Par ch=4 c=7 v=78
25520 Par ch=4 c=7 v=79
25528 Par ch=4 c=7 v=80
25536 Par ch=4 c=7 v=81
25548 Par ch=4 c=7 v=82
25568 Par ch=4 c=7 v=84
25580 Par ch=4 c=7 v=85
25588 Par ch=4 c=7 v=87
25600 Par ch=4 c=7 v=88
25608 Par ch=4 c=7 v=89
25620 Par ch=4 c=7 v=90
25632 Par ch=4 c=7 v=91
25640 Par ch=4 c=7 v=92
25648 Par ch=4 c=7 v=93
25672 Par ch=4 c=7 v=94
25680 Par ch=4 c=7 v=95
25692 Par ch=4 c=7 v=96
25700 Par ch=4 c=7 v=97
25732 Par ch=4 c=7 v=98
25764 Par ch=4 c=7 v=99
25796 Par ch=4 c=7 v=100
25808 Par ch=4 c=7 v=101
25816 Par ch=4 c=7 v=102
25824 Par ch=4 c=7 v=103
25848 Par ch=4 c=7 v=104
25876 Par ch=4 c=7 v=105
25900 Par ch=4 c=7 v=106
25920 Par ch=4 c=7 v=107
25940 Par ch=4 c=7 v=109
25968 Par ch=4 c=7 v=110
25980 Par ch=4 c=7 v=111
25992 Par ch=4 c=7 v=112
26000 Par ch=4 c=7 v=113
26032 Par ch=4 c=7 v=114
26044 Par ch=4 c=7 v=115
26064 Par ch=4 c=7 v=116
26072 Par ch=4 c=7 v=117
26080 Par ch=4 c=7 v=118
26104 Par ch=4 c=7 v=119
26132 Off ch=4 n=60 v=0
26132 Off ch=4 n=64 v=0
26132 Off ch=4 n=67 v=0
26132 Par ch=4 c=7 v=121
26144 Par ch=4 c=7 v=122
26156 Par ch=4 c=7 v=123
26176 Par ch=4 c=7 v=124
26208 Par ch=4 c=7 v=126
26240 Par ch=4 c=7 v=127
26256 Par ch=4 c=7 v=126
26256 Meta TrkEnd
TrkEnd
MTrk
0 Meta TrkName "Trumpet 1"
0 Par ch=5 c=0 v=0
0 PrCh ch=5 p=56
0 Par ch=5 c=10 v=40
0 KeySig 0 major
0 Par ch=5 c=7 v=45
0 Pb ch=5 v=8192
0 Par ch=5 c=64 v=0
0 Par ch=5 c=1 v=0
1516 Par ch=5 c=7 v=39
1528 Par ch=5 c=7 v=38
1532 On ch=5 n=60 v=127
1544 Par ch=5 c=7 v=36
1556 Par ch=5 c=7 v=34
1572 Par ch=5 c=7 v=32
1584 Par ch=5 c=7 v=31
1600 Par ch=5 c=7 v=30
1656 Par ch=5 c=7 v=29
1672 Par ch=5 c=7 v=28
1696 Par ch=5 c=7 v=27
1756 Par ch=5 c=7 v=28
1784 Par ch=5 c=7 v=27
1812 Par ch=5 c=7 v=28
1872 Par ch=5 c=7 v=27
1900 Par ch=5 c=7 v=28
1928 Par ch=5 c=7 v=27
1984 Par ch=5 c=7 v=28
2040 Par ch=5 c=7 v=27
2068 Par ch=5 c=7 v=28
2244 Off ch=5 n=60 v=0
2328 On ch=5 n=67 v=127
2992 Par ch=5 c=7 v=29
3020 Off ch=5 n=67 v=0
3020 Par ch=5 c=7 v=30
3048 Par ch=5 c=7 v=31
3092 Par ch=5 c=7 v=37
3100 On ch=5 n=72 v=127
3120 Par ch=5 c=7 v=38
3148 Par ch=5 c=7 v=39
3376 Par ch=5 c=7 v=37
3392 Par ch=5 c=7 v=36
3432 Par ch=5 c=7 v=35
3444 Par ch=5 c=7 v=34
3488 Par ch=5 c=7 v=32
3516 Par ch=5 c=7 v=31
3544 Par ch=5 c=7 v=32
3560 Par ch=5 c=7 v=33
3572 Par ch=5 c=7 v=34
3588 Par ch=5 c=7 v=35
3600 Par ch=5 c=7 v=36
3616 Par ch=5 c=7 v=37
3644 Par ch=5 c=7 v=38
3672 Par ch=5 c=7 v=39
3700 Par ch=5 c=7 v=40
3728 Par ch=5 c=7 v=41
3760 Par ch=5 c=7 v=42
3772 Par ch=5 c=7 v=43
3788 Par ch=5 c=7 v=44
3800 Par ch=5 c=7 v=45
3816 Par ch=5 c=7 v=46
3828 Par ch=5 c=7 v=47
3840 Par ch=5 c=7 v=48
3856 Par ch=5 c=7 v=49
3872 Par ch=5 c=7 v=50
3904 Par ch=5 c=7 v=51
3916 Par ch=5 c=7 v=52
3928 Par ch=5 c=7 v=54
3944 Par ch=5 c=7 v=55
3956 Par ch=5 c=7 v=56
3972 Par ch=5 c=7 v=58
3984 Par ch=5 c=7 v=59
4000 Par ch=5 c=7 v=60
4016 Par ch=5 c=7 v=62
4028 Par ch=5 c=7 v=63
4056 Par ch=5 c=7 v=64
4072 Par ch=5 c=7 v=65
4084 Par ch=5 c=7 v=67
4100 Par ch=5 c=7 v=68
4112 Par ch=5 c=7 v=69
4128 Par ch=5 c=7 v=71
4156 Par ch=5 c=7 v=72
4172 Par ch=5 c=7 v=73
4184 Par ch=5 c=7 v=74
4200 Par ch=5 c=7 v=75
4212 Par ch=5 c=7 v=76
4228 Par ch=5 c=7 v=77
4240 Par ch=5 c=7 v=79
4256 Par ch=5 c=7 v=80
4272 Par ch=5 c=7 v=81
4284 Par ch=5 c=7 v=82
4312 Par ch=5 c=7 v=83
4340 Par ch=5 c=7 v=85
4352 Par ch=5 c=7 v=86
4368 Par ch=5 c=7 v=88
4372 Off ch=5 n=72 v=0
4384 Par ch=5 c=7 v=89
4400 Par ch=5 c=7 v=91
4412 Par ch=5 c=7 v=92
4428 Par ch=5 c=7 v=90
4440 Par ch=5 c=7 v=86
4452 Par ch=5 c=7 v=80
4468 Par ch=5 c=7 v=73
4480 Par ch=5 c=7 v=64
4496 On ch=5 n=67 v=127
4496 Par ch=5 c=7 v=57
4496 On ch=5 n=76 v=127
4496 On ch=5 n=72 v=127
4512 Par ch=5 c=7 v=52
4524 Par ch=5 c=7 v=49
4540 Off ch=5 n=72 v=0
4540 Par ch=5 c=7 v=48
4544 Off ch=5 n=76 v=0
4552 Off ch=5 n=67 v=0
4580 Par ch=5 c=7 v=49
4608 Par ch=5 c=7 v=50
4652 Par ch=5 c=7 v=51
4656 On ch=5 n=67 v=127
4656 On ch=5 n=72 v=127
4656 On ch=5 n=75 v=127
4668 Par ch=5 c=7 v=52
4680 Par ch=5 c=7 v=54
4692 Par ch=5 c=7 v=56
4708 Par ch=5 c=7 v=57
4724 Par ch=5 c=7 v=58
4852 Par ch=5 c=7 v=57
5192 Par ch=5 c=7 v=56
5208 Par ch=5 c=7 v=55
5236 Par ch=5 c=7 v=54
5264 Par ch=5 c=7 v=53
5280 Par ch=5 c=7 v=52
5292 Par ch=5 c=7 v=51
5308 Par ch=5 c=7 v=50
5320 Par ch=5 c=7 v=49
5336 Par ch=5 c=7 v=48
5348 Par ch=5 c=7 v=47
5360 Par ch=5 c=7 v=45
5376 Par ch=5 c=7 v=44
5408 Par ch=5 c=7 v=42
5420 Par ch=5 c=7 v=41
5432 Par ch=5 c=7 v=40
5448 Par ch=5 c=7 v=39
5460 Par ch=5 c=7 v=38
5488 Par ch=5 c=7 v=37
5504 Par ch=5 c=7 v=36
5520 Par ch=5 c=7 v=34
5532 Par ch=5 c=7 v=33
5548 Par ch=5 c=7 v=31
5560 Par ch=5 c=7 v=30
5576 Par ch=5 c=7 v=29
5592 Par ch=5 c=7 v=28
5604 Par ch=5 c=7 v=26
5620 Par ch=5 c=7 v=25
5648 Par ch=5 c=7 v=24
5692 Par ch=5 c=7 v=25
5744 Par ch=5 c=7 v=26
5760 Par ch=5 c=7 v=27
5776 Par ch=5 c=7 v=29
5792 Par ch=5 c=7 v=31
5804 Par ch=5 c=7 v=34
5820 Par ch=5 c=7 v=35
5832 Par ch=5 c=7 v=37
5844 Par ch=5 c=7 v=38
5860 Par ch=5 c=7 v=39
5872 Par ch=5 c=7 v=41
5888 Par ch=5 c=7 v=42
5904 Par ch=5 c=7 v=43
5920 Par ch=5 c=7 v=45
5932 Par ch=5 c=7 v=46
5944 Par ch=5 c=7 v=48
5960 Par ch=5 c=7 v=49
5972 Par ch=5 c=7 v=50
5988 Par ch=5 c=7 v=51
6000 Par ch=5 c=7 v=52
6016 Par ch=5 c=7 v=53
6032 Par ch=5 c=7 v=55
6044 Par ch=5 c=7 v=56
6060 Par ch=5 c=7 v=58
6072 Par ch=5 c=7 v=60
6088 Par ch=5 c=7 v=62
6100 Par ch=5 c=7 v=64
6112 Par ch=5 c=7 v=66
6128 Par ch=5 c=7 v=68
6144 Par ch=5 c=7 v=70
6160 Par ch=5 c=7 v=71
6172 Par ch=5 c=7 v=73
6184 Par ch=5 c=7 v=75
6196 Par ch=5 c=7 v=76
6208 Par ch=5 c=7 v=84
6224 Par ch=5 c=7 v=85
6236 Par ch=5 c=7 v=86
6240 Off ch=5 n=67 v=0
6240 Off ch=5 n=72 v=0
6248 Off ch=5 n=75 v=0
6252 Par ch=5 c=7 v=88
6276 Par ch=5 c=7 v=87
6288 Par ch=5 c=7 v=85
6304 Par ch=5 c=7 v=82
6316 Par ch=5 c=7 v=77
6328 Par ch=5 c=7 v=74
6340 Par ch=5 c=7 v=70
6352 Par ch=5 c=7 v=68
6368 Par ch=5 c=7 v=66
6384 Par ch=5 c=7 v=65
6396 Par ch=5 c=7 v=64
6420 Par ch=5 c=7 v=63
6432 Par ch=5 c=7 v=62
6448 Par ch=5 c=7 v=61
6460 Par ch=5 c=7 v=60
6472 Par ch=5 c=7 v=59
6484 Par ch=5 c=7 v=58
6652 Par ch=5 c=7 v=57
6664 Par ch=5 c=7 v=56
6676 Par ch=5 c=7 v=55
6688 Par ch=5 c=7 v=54
6728 Par ch=5 c=7 v=53
6788 Par ch=5 c=7 v=52
6828 Par ch=5 c=7 v=53
7216 Par ch=5 c=7 v=51
7284 Par ch=5 c=7 v=50
7600 Par ch=5 c=7 v=48
7632 Par ch=5 c=7 v=49
7668 Par ch=5 c=7 v=48
7704 On ch=5 n=60 v=127
8328 Off ch=5 n=60 v=0
8404 Par ch=5 c=7 v=51
8416 Par ch=5 c=7 v=52
8448 On ch=5 n=67 v=127
8480 Par ch=5 c=7 v=53
9132 Off ch=5 n=67 v=0
9172 Par ch=5 c=7 v=55
9184 Par ch=5 c=7 v=56
9188 On ch=5 n=72 v=127
9212 Par ch=5 c=7 v=57
9236 Par ch=5 c=7 v=58
9264 Par ch=5 c=7 v=56
9272 Par ch=5 c=7 v=53
9284 Par ch=5 c=7 v=50
9296 Par ch=5 c=7 v=48
9312 Par ch=5 c=7 v=47
9324 Par ch=5 c=7 v=46
9340 Par ch=5 c=7 v=45
9364 Par ch=5 c=7 v=43
9376 Par ch=5 c=7 v=41
9392 Par ch=5 c=7 v=38
9404 Par ch=5 c=7 v=36
9416 Par ch=5 c=7 v=35
9428 Par ch=5 c=7 v=34
9492 Par ch=5 c=7 v=35
9504 Par ch=5 c=7 v=36
9520 Par ch=5 c=7 v=37
9532 Par ch=5 c=7 v=39
9544 Par ch=5 c=7 v=40
9568 Par ch=5 c=7 v=41
9580 Par ch=5 c=7 v=42
9592 Par ch=5 c=7 v=43
9604 Par ch=5 c=7 v=44
9620 Par ch=5 c=7 v=45
9656 Par ch=5 c=7 v=47
9668 Par ch=5 c=7 v=48
9680 Par ch=5 c=7 v=49
9720 Par ch=5 c=7 v=50
9732 Par ch=5 c=7 v=51
9760 Par ch=5 c=7 v=52
9772 Par ch=5 c=7 v=53
9796 Par ch=5 c=7 v=54
9808 Par ch=5 c=7 v=55
9824 Par ch=5 c=7 v=56
9848 Par ch=5 c=7 v=57
9872 Par ch=5 c=7 v=58
9888 Par ch=5 c=7 v=59
9900 Par ch=5 c=7 v=60
9924 Par ch=5 c=7 v=61
9936 Par ch=5 c=7 v=62
9952 Par ch=5 c=7 v=63
9964 Par ch=5 c=7 v=64
9976 Par ch=5 c=7 v=65
9988 Par ch=5 c=7 v=66
10000 Par ch=5 c=7 v=67
10016 Par ch=5 c=7 v=68
10028 Par ch=5 c=7 v=70
10052 Par ch=5 c=7 v=71
10064 Par ch=5 c=7 v=72
10080 Par ch=5 c=7 v=73
10092 Par ch=5 c=7 v=74
10104 Par ch=5 c=7 v=75
10116 Par ch=5 c=7 v=76
10144 Par ch=5 c=7 v=78
10180 Par ch=5 c=7 v=79
10192 Par ch=5 c=7 v=80
10220 Par ch=5 c=7 v=81
10232 Par ch=5 c=7 v=82
10244 Par ch=5 c=7 v=83
10284 Par ch=5 c=7 v=84
10296 Par ch=5 c=7 v=85
10308 Par ch=5 c=7 v=86
10348 Par ch=5 c=7 v=87
10360 Par ch=5 c=7 v=88
10372 Par ch=5 c=7 v=89
10384 Par ch=5 c=7 v=90
10400 Par ch=5 c=7 v=91
10484 Par ch=5 c=7 v=90
10496 Par ch=5 c=7 v=87
10512 Par ch=5 c=7 v=83
10520 Off ch=5 n=72 v=0
10528 Par ch=5 c=7 v=77
10536 Par ch=5 c=7 v=72
10548 Par ch=5 c=7 v=67
10560 Par ch=5 c=7 v=63
10576 Par ch=5 c=7 v=61
10588 Par ch=5 c=7 v=60
10600 Par ch=5 c=7 v=59
10624 Par ch=5 c=7 v=58
10660 On ch=5 n=67 v=127
10660 On ch=5 n=75 v=127
10660 On ch=5 n=72 v=127
10664 Par ch=5 c=7 v=59
10676 Par ch=5 c=7 v=58
10688 Par ch=5 c=7 v=57
10696 Off ch=5 n=72 v=0
10704 Off ch=5 n=75 v=0
10712 Off ch=5 n=67 v=0
10728 Par ch=5 c=7 v=58
10740 Par ch=5 c=7 v=60
10752 Par ch=5 c=7 v=63
10768 Par ch=5 c=7 v=66
10780 Par ch=5 c=7 v=67
10792 On ch=5 n=67 v=127
10792 On ch=5 n=72 v=127
10796 Par ch=5 c=7 v=68
10796 On ch=5 n=76 v=127
10804 Par ch=5 c=7 v=70
10816 Par ch=5 c=7 v=72
10832 Par ch=5 c=7 v=74
10844 Par ch=5 c=7 v=75
10872 Par ch=5 c=7 v=74
10884 Par ch=5 c=7 v=72
10896 Par ch=5 c=7 v=71
10912 Par ch=5 c=7 v=70
10988 Par ch=5 c=7 v=69
11024 Par ch=5 c=7 v=68
11112 Par ch=5 c=7 v=67
11124 Par ch=5 c=7 v=66
11152 Par ch=5 c=7 v=65
11176 Par ch=5 c=7 v=64
11200 Par ch=5 c=7 v=63
11252 Par ch=5 c=7 v=61
11264 Par ch=5 c=7 v=60
11292 Par ch=5 c=7 v=59
11328 Par ch=5 c=7 v=58
11368 Par ch=5 c=7 v=57
11408 Par ch=5 c=7 v=56
11432 Par ch=5 c=7 v=55
11444 Par ch=5 c=7 v=54
11472 Par ch=5 c=7 v=53
11484 Par ch=5 c=7 v=52
11508 Par ch=5 c=7 v=51
11520 Par ch=5 c=7 v=50
11548 Par ch=5 c=7 v=49
11572 Par ch=5 c=7 v=48
11584 Par ch=5 c=7 v=47
11600 Par ch=5 c=7 v=46
11612 Par ch=5 c=7 v=45
11636 Par ch=5 c=7 v=44
11664 Par ch=5 c=7 v=43
11688 Par ch=5 c=7 v=42
11700 Par ch=5 c=7 v=41
11764 Par ch=5 c=7 v=42
11776 Par ch=5 c=7 v=43
11792 Par ch=5 c=7 v=44
11804 Par ch=5 c=7 v=46
11816 Par ch=5 c=7 v=47
11828 Par ch=5 c=7 v=48
11840 Par ch=5 c=7 v=49
11856 Par ch=5 c=7 v=50
11868 Par ch=5 c=7 v=52
11880 Par ch=5 c=7 v=53
11920 Par ch=5 c=7 v=54
11928 Par ch=5 c=7 v=55
11944 Par ch=5 c=7 v=56
11956 Par ch=5 c=7 v=57
11968 Par ch=5 c=7 v=58
11984 Par ch=5 c=7 v=59
11996 Par ch=5 c=7 v=60
12016 Par ch=5 c=7 v=61
12032 Par ch=5 c=7 v=63
12044 Par ch=5 c=7 v=64
12056 Par ch=5 c=7 v=65
12068 Par ch=5 c=7 v=66
12080 Par ch=5 c=7 v=67
12096 Par ch=5 c=7 v=68
12108 Par ch=5 c=7 v=69
12120 Par ch=5 c=7 v=70
12144 Par ch=5 c=7 v=71
12160 Par ch=5 c=7 v=72
12172 Par ch=5 c=7 v=73
12196 Par ch=5 c=7 v=75
12208 Par ch=5 c=7 v=76
12224 Par ch=5 c=7 v=78
12236 Par ch=5 c=7 v=79
12272 Par ch=5 c=7 v=80
12300 Par ch=5 c=7 v=81
12336 Par ch=5 c=7 v=82
12352 Par ch=5 c=7 v=83
12364 Off ch=5 n=67 v=0
12364 Off ch=5 n=72 v=0
12368 Off ch=5 n=76 v=0
12376 Par ch=5 c=7 v=84
12416 Par ch=5 c=7 v=85
12452 Par ch=5 c=7 v=83
12464 Par ch=5 c=7 v=80
12480 Par ch=5 c=7 v=77
12492 Par ch=5 c=7 v=73
12504 Par ch=5 c=7 v=69
12516 Par ch=5 c=7 v=67
12528 Par ch=5 c=7 v=66
12540 Par ch=5 c=7 v=64
12552 Par ch=5 c=7 v=62
12564 Par ch=5 c=7 v=61
12576 Par ch=5 c=7 v=59
12592 Par ch=5 c=7 v=58
12604 Par ch=5 c=7 v=57
12624 Par ch=5 c=7 v=56
12640 Par ch=5 c=7 v=55
12652 Par ch=5 c=7 v=54
12664 Par ch=5 c=7 v=53
12676 Par ch=5 c=7 v=52
12724 Par ch=5 c=7 v=51
12764 Par ch=5 c=7 v=52
13168 Par ch=5 c=7 v=50
13188 Par ch=5 c=7 v=51
13312 Par ch=5 c=7 v=50
13824 On ch=5 n=60 v=127
14232 Par ch=5 c=7 v=58
14296 Par ch=5 c=7 v=59
14400 Par ch=5 c=7 v=60
14448 Par ch=5 c=7 v=61
14472 Off ch=5 n=60 v=0
14476 Par ch=5 c=7 v=62
14540 Par ch=5 c=7 v=63
14592 On ch=5 n=67 v=127
14604 Par ch=5 c=7 v=64
14640 Par ch=5 c=7 v=63
15152 Par ch=5 c=7 v=65
15188 Par ch=5 c=7 v=66
15252 Par ch=5 c=7 v=64
15264 Par ch=5 c=7 v=63
15280 Par ch=5 c=7 v=62
15292 Par ch=5 c=7 v=59
15296 Off ch=5 n=67 v=0
15304 Par ch=5 c=7 v=57
15316 Par ch=5 c=7 v=56
15328 Par ch=5 c=7 v=55
15344 Par ch=5 c=7 v=54
15356 Par ch=5 c=7 v=53
15360 On ch=5 n=72 v=127
15408 Par ch=5 c=7 v=52
15728 Par ch=5 c=7 v=50
15916 Par ch=5 c=7 v=56
15928 Par ch=5 c=7 v=57
15940 Par ch=5 c=7 v=58
15952 Par ch=5 c=7 v=59
15968 Par ch=5 c=7 v=60
15980 Par ch=5 c=7 v=61
15992 Par ch=5 c=7 v=62
16004 Par ch=5 c=7 v=63
16016 Par ch=5 c=7 v=64
16044 Par ch=5 c=7 v=65
16060 Par ch=5 c=7 v=66
16072 Par ch=5 c=7 v=67
16096 Par ch=5 c=7 v=68
16108 Par ch=5 c=7 v=69
16120 Par ch=5 c=7 v=70
16132 Par ch=5 c=7 v=71
16160 Par ch=5 c=7 v=72
16196 Par ch=5 c=7 v=74
16236 Par ch=5 c=7 v=75
16260 Par ch=5 c=7 v=76
16288 Par ch=5 c=7 v=77
16324 Par ch=5 c=7 v=78
16364 Par ch=5 c=7 v=79
16416 Par ch=5 c=7 v=80
16440 Par ch=5 c=7 v=81
16464 Par ch=5 c=7 v=82
16504 Par ch=5 c=7 v=83
16556 Par ch=5 c=7 v=84
16580 Par ch=5 c=7 v=85
16620 Par ch=5 c=7 v=86
16668 Par ch=5 c=7 v=84
16680 Par ch=5 c=7 v=81
16684 Off ch=5 n=72 v=0
16696 Par ch=5 c=7 v=76
16708 Par ch=5 c=7 v=72
16720 Par ch=5 c=7 v=68
16732 Par ch=5 c=7 v=65
16744 Par ch=5 c=7 v=63
16756 Par ch=5 c=7 v=61
16768 Par ch=5 c=7 v=59
16784 Par ch=5 c=7 v=56
16796 Par ch=5 c=7 v=54
16808 Par ch=5 c=7 v=51
16808 On ch=5 n=48 v=127
16816 On ch=5 n=64 v=127
16816 On ch=5 n=60 v=127
16824 Par ch=5 c=7 v=49
16836 Par ch=5 c=7 v=47
16848 Par ch=5 c=7 v=46
16876 Off ch=5 n=60 v=0
16876 Par ch=5 c=7 v=47
16880 Off ch=5 n=64 v=0
16888 Par ch=5 c=7 v=48
16896 Off ch=5 n=48 v=0
16900 Par ch=5 c=7 v=49
16912 Par ch=5 c=7 v=51
16928 Par ch=5 c=7 v=54
16936 Par ch=5 c=7 v=57
16952 Par ch=5 c=7 v=61
16964 Par ch=5 c=7 v=66
16964 On ch=5 n=65 v=127
16964 On ch=5 n=60 v=127
16964 On ch=5 n=69 v=127
16964 On ch=5 n=41 v=127
16976 Par ch=5 c=7 v=72
16992 Par ch=5 c=7 v=76
17004 Par ch=5 c=7 v=79
17012 Par ch=5 c=7 v=80
17040 Par ch=5 c=7 v=79
17076 Par ch=5 c=7 v=78
17088 Par ch=5 c=7 v=77
17116 Par ch=5 c=7 v=76
17244 Par ch=5 c=7 v=75
17296 Par ch=5 c=7 v=74
17384 Par ch=5 c=7 v=73
17560 Par ch=5 c=7 v=72
17588 Par ch=5 c=7 v=71
17600 Par ch=5 c=7 v=69
17616 Par ch=5 c=7 v=68
17628 Par ch=5 c=7 v=67
17640 Par ch=5 c=7 v=66
17652 Par ch=5 c=7 v=65
17664 Par ch=5 c=7 v=64
17680 Par ch=5 c=7 v=62
17692 Par ch=5 c=7 v=61
17704 Par ch=5 c=7 v=60
17716 Par ch=5 c=7 v=58
17728 Par ch=5 c=7 v=56
17744 Par ch=5 c=7 v=54
17756 Par ch=5 c=7 v=51
17768 Par ch=5 c=7 v=49
17780 Par ch=5 c=7 v=46
17792 Par ch=5 c=7 v=43
17808 Par ch=5 c=7 v=41
17828 Par ch=5 c=7 v=40
17844 Par ch=5 c=7 v=39
17872 Par ch=5 c=7 v=38
17932 Par ch=5 c=7 v=39
17944 Par ch=5 c=7 v=40
17956 Par ch=5 c=7 v=42
17968 Par ch=5 c=7 v=44
17984 Par ch=5 c=7 v=46
17996 Par ch=5 c=7 v=47
18008 Par ch=5 c=7 v=49
18020 Par ch=5 c=7 v=50
18032 Par ch=5 c=7 v=51
18048 Par ch=5 c=7 v=53
18060 Par ch=5 c=7 v=55
18072 Par ch=5 c=7 v=57
18084 Par ch=5 c=7 v=59
18096 Par ch=5 c=7 v=60
18112 Par ch=5 c=7 v=61
18124 Par ch=5 c=7 v=62
18136 Par ch=5 c=7 v=63
18148 Par ch=5 c=7 v=64
18160 Par ch=5 c=7 v=65
18176 Par ch=5 c=7 v=66
18188 Par ch=5 c=7 v=68
18200 Par ch=5 c=7 v=69
18212 Par ch=5 c=7 v=70
18224 Par ch=5 c=7 v=72
18228 Off ch=5 n=60 v=0
18240 Par ch=5 c=7 v=73
18252 Par ch=5 c=7 v=74
18276 Par ch=5 c=7 v=76
18288 Par ch=5 c=7 v=77
18304 Par ch=5 c=7 v=78
18316 Par ch=5 c=7 v=79
18352 Par ch=5 c=7 v=80
18360 Off ch=5 n=69 v=0
18364 Off ch=5 n=65 v=0
18368 Par ch=5 c=7 v=81
18380 Par ch=5 c=7 v=82
18416 Par ch=5 c=7 v=83
18432 Par ch=5 c=7 v=84
18604 Par ch=5 c=7 v=84
20076 On ch=5 n=76 v=127
20076 On ch=5 n=72 v=127
20096 Off ch=5 n=41 v=0
20208 Off ch=5 n=72 v=0
20236 Off ch=5 n=76 v=0
20240 On ch=5 n=77 v=127
20240 On ch=5 n=74 v=127
20380 Off ch=5 n=74 v=0
20412 Off ch=5 n=77 v=0
20428 On ch=5 n=79 v=127
20432 On ch=5 n=76 v=127
21268 Off ch=5 n=79 v=0
21268 Off ch=5 n=76 v=0
22288 On ch=5 n=60 v=127
22472 Par ch=5 c=7 v=100
22500 Par ch=5 c=7 v=99
22524 Par ch=5 c=7 v=98
22552 Par ch=5 c=7 v=97
22656 Par ch=5 c=7 v=96
22680 Off ch=5 n=60 v=0
22716 On ch=5 n=62 v=127
22792 Par ch=5 c=7 v=95
23080 Par ch=5 c=7 v=93
23120 Par ch=5 c=7 v=92
23132 Par ch=5 c=7 v=91
23148 Off ch=5 n=62 v=0
23160 Par ch=5 c=7 v=90
23176 On ch=5 n=67 v=127
23176 On ch=5 n=64 v=127
23176 On ch=5 n=60 v=127
23264 Par ch=5 c=7 v=89
23276 Par ch=5 c=7 v=87
23284 Par ch=5 c=7 v=86
23316 Par ch=5 c=7 v=87
23388 Par ch=5 c=7 v=86
23408 Par ch=5 c=7 v=85
23420 Par ch=5 c=7 v=84
23428 Par ch=5 c=7 v=83
23440 Par ch=5 c=7 v=82
23448 Par ch=5 c=7 v=81
23460 Par ch=5 c=7 v=80
23520 Par ch=5 c=7 v=81
23532 Par ch=5 c=7 v=82
23552 Par ch=5 c=7 v=83
23644 Par ch=5 c=7 v=84
23664 Par ch=5 c=7 v=85
23788 Par ch=5 c=7 v=80
23808 Par ch=5 c=7 v=79
23828 Par ch=5 c=7 v=78
23840 Par ch=5 c=7 v=77
23852 Par ch=5 c=7 v=76
23872 Par ch=5 c=7 v=75
23912 Par ch=5 c=7 v=74
23944 Par ch=5 c=7 v=73
23964 Par ch=5 c=7 v=72
23996 Par ch=5 c=7 v=71
24036 Par ch=5 c=7 v=70
24064 Par ch=5 c=7 v=69
24128 Par ch=5 c=7 v=68
24224 Par ch=5 c=7 v=67
24272 Par ch=5 c=7 v=66
24304 Par ch=5 c=7 v=65
24336 Par ch=5 c=7 v=64
24352 Par ch=5 c=7 v=63
24376 Par ch=5 c=7 v=62
24396 Par ch=5 c=7 v=61
24404 Par ch=5 c=7 v=60
24428 Par ch=5 c=7 v=59
24448 Par ch=5 c=7 v=58
24480 Par ch=5 c=7 v=57
24488 Par ch=5 c=7 v=56
24508 Par ch=5 c=7 v=55
24520 Par ch=5 c=7 v=54
24544 Par ch=5 c=7 v=53
24560 Par ch=5 c=7 v=52
24580 Par ch=5 c=7 v=51
24592 Par ch=5 c=7 v=50
24604 Par ch=5 c=7 v=49
24612 Par ch=5 c=7 v=48
24624 Par ch=5 c=7 v=47
24656 Par ch=5 c=7 v=46
24664 Par ch=5 c=7 v=45
24672 Par ch=5 c=7 v=44
24684 Par ch=5 c=7 v=43
24696 Par ch=5 c=7 v=42
24704 Par ch=5 c=7 v=41
24716 Par ch=5 c=7 v=40
24736 Par ch=5 c=7 v=39
24748 Par ch=5 c=7 v=38
24756 Par ch=5 c=7 v=37
24768 Par ch=5 c=7 v=36
24776 Par ch=5 c=7 v=35
24788 Par ch=5 c=7 v=34
24808 Par ch=5 c=7 v=33
24816 Par ch=5 c=7 v=32
24860 Par ch=5 c=7 v=31
24868 Par ch=5 c=7 v=29
24880 Par ch=5 c=7 v=28
24900 Par ch=5 c=7 v=27
24944 Par ch=5 c=7 v=26
24952 Par ch=5 c=7 v=25
24960 Par ch=5 c=7 v=24
25012 Par ch=5 c=7 v=25
25036 Par ch=5 c=7 v=26
25044 Par ch=5 c=7 v=27
25056 Par ch=5 c=7 v=28
25088 Par ch=5 c=7 v=29
25116 Par ch=5 c=7 v=30
25148 Par ch=5 c=7 v=31
25156 Par ch=5 c=7 v=32
25168 Par ch=5 c=7 v=33
25180 Par ch=5 c=7 v=34
25188 Par ch=5 c=7 v=35
25200 Par ch=5 c=7 v=36
25212 Par ch=5 c=7 v=38
25220 Par ch=5 c=7 v=39
25232 Par ch=5 c=7 v=40
25248 Par ch=5 c=7 v=41
25264 Par ch=5 c=7 v=42
25272 Par ch=5 c=7 v=43
25280 Par ch=5 c=7 v=45
25292 Par ch=5 c=7 v=46
25300 Par ch=5 c=7 v=47
25312 Par ch=5 c=7 v=49
25324 Par ch=5 c=7 v=50
25332 Par ch=5 c=7 v=52
25352 Par ch=5 c=7 v=54
25364 Par ch=5 c=7 v=55
25376 Par ch=5 c=7 v=57
25384 Par ch=5 c=7 v=58
25392 Par ch=5 c=7 v=59
25404 Par ch=5 c=7 v=60
25416 Par ch=5 c=7 v=62
25424 Par ch=5 c=7 v=63
25436 Par ch=5 c=7 v=64
25444 Par ch=5 c=7 v=66
25468 Par ch=5 c=7 v=68
25476 Par ch=5 c=7 v=70
25488 Par ch=5 c=7 v=71
25496 Par ch=5 c=7 v=73
25508 Par ch=5 c=7 v=75
25520 Par ch=5 c=7 v=76
25528 Par ch=5 c=7 v=77
25536 Par ch=5 c=7 v=78
25548 Par ch=5 c=7 v=79
25568 Par ch=5 c=7 v=81
25580 Par ch=5 c=7 v=82
25588 Par ch=5 c=7 v=84
25600 Par ch=5 c=7 v=85
25612 Par ch=5 c=7 v=86
25620 Par ch=5 c=7 v=87
25632 Par ch=5 c=7 v=88
25640 Par ch=5 c=7 v=89
25648 Par ch=5 c=7 v=90
25672 Par ch=5 c=7 v=91
25680 Par ch=5 c=7 v=92
25692 Par ch=5 c=7 v=93
25704 Par ch=5 c=7 v=94
25732 Par ch=5 c=7 v=95
25764 Par ch=5 c=7 v=96
25796 Par ch=5 c=7 v=97
25808 Par ch=5 c=7 v=98
25816 Par ch=5 c=7 v=99
25824 Par ch=5 c=7 v=100
25848 Par ch=5 c=7 v=101
25876 Par ch=5 c=7 v=102
25900 Par ch=5 c=7 v=103
25920 Par ch=5 c=7 v=104
25940 Par ch=5 c=7 v=106
25968 Par ch=5 c=7 v=107
25984 Par ch=5 c=7 v=108
25992 Par ch=5 c=7 v=109
26000 Par ch=5 c=7 v=110
26032 Par ch=5 c=7 v=111
26044 Par ch=5 c=7 v=112
26064 Par ch=5 c=7 v=113
26072 Par ch=5 c=7 v=114
26084 Par ch=5 c=7 v=115
26104 Par ch=5 c=7 v=116
26132 Off ch=5 n=60 v=0
26132 Off ch=5 n=64 v=0
26132 Off ch=5 n=67 v=0
26136 Par ch=5 c=7 v=118
26144 Par ch=5 c=7 v=119
26156 Par ch=5 c=7 v=120
26176 Par ch=5 c=7 v=121
26208 Par ch=5 c=7 v=123
26240 Par ch=5 c=7 v=124
26256 Par ch=5 c=7 v=123
26896 Par ch=5 c=7 v=93
26912 Par ch=5 c=7 v=91
26920 Par ch=5 c=7 v=90
26940 Par ch=5 c=7 v=89
26940 Meta TrkEnd
TrkEnd
MTrk
0 Meta TrkName "Tuba"
0 Par ch=5 c=0 v=0
0 PrCh ch=5 p=56
0 Par ch=5 c=10 v=40
0 KeySig 0 major
16952 On ch=5 n=41 v=127
19264 Off ch=5 n=41 v=0
19264 Meta TrkEnd
TrkEnd
MTrk
0 Meta TrkName "Trombone 1"
0 Par ch=6 c=0 v=0
0 PrCh ch=6 p=57
0 Par ch=6 c=10 v=45
0 KeySig 0 major
0 Par ch=6 c=7 v=41
0 Pb ch=6 v=8192
0 Par ch=6 c=64 v=0
0 Par ch=6 c=1 v=0
1516 Par ch=6 c=7 v=35
1532 Par ch=6 c=7 v=34
1544 Par ch=6 c=7 v=32
1560 Par ch=6 c=7 v=30
1572 Par ch=6 c=7 v=28
1588 Par ch=6 c=7 v=27
1600 Par ch=6 c=7 v=26
1660 Par ch=6 c=7 v=25
1672 Par ch=6 c=7 v=24
1700 Par ch=6 c=7 v=23
1760 Par ch=6 c=7 v=24
1784 Par ch=6 c=7 v=23
1812 Par ch=6 c=7 v=24
1872 Par ch=6 c=7 v=23
1900 Par ch=6 c=7 v=24
1928 Par ch=6 c=7 v=23
1984 Par ch=6 c=7 v=24
2040 Par ch=6 c=7 v=23
2068 Par ch=6 c=7 v=24
2992 Par ch=6 c=7 v=25
3024 Par ch=6 c=7 v=26
3052 Par ch=6 c=7 v=27
3092 Par ch=6 c=7 v=33
3120 Par ch=6 c=7 v=34
3152 Par ch=6 c=7 v=35
3376 Par ch=6 c=7 v=33
3392 Par ch=6 c=7 v=32
3432 Par ch=6 c=7 v=31
3448 Par ch=6 c=7 v=30
3488 Par ch=6 c=7 v=28
3520 Par ch=6 c=7 v=27
3548 Par ch=6 c=7 v=28
3560 Par ch=6 c=7 v=29
3576 Par ch=6 c=7 v=30
3588 Par ch=6 c=7 v=31
3600 Par ch=6 c=7 v=32
3616 Par ch=6 c=7 v=33
3648 Par ch=6 c=7 v=34
3676 Par ch=6 c=7 v=35
3700 Par ch=6 c=7 v=36
3728 Par ch=6 c=7 v=37
3760 Par ch=6 c=7 v=38
3772 Par ch=6 c=7 v=39
3788 Par ch=6 c=7 v=40
3800 Par ch=6 c=7 v=41
3816 Par ch=6 c=7 v=42
3828 Par ch=6 c=7 v=43
3844 Par ch=6 c=7 v=44
3856 Par ch=6 c=7 v=45
3872 Par ch=6 c=7 v=46
3904 Par ch=6 c=7 v=47
3916 Par ch=6 c=7 v=48
3932 Par ch=6 c=7 v=50
3944 Par ch=6 c=7 v=51
3960 Par ch=6 c=7 v=52
3972 Par ch=6 c=7 v=54
3988 Par ch=6 c=7 v=55
4000 Par ch=6 c=7 v=56
4016 Par ch=6 c=7 v=58
4032 Par ch=6 c=7 v=59
4060 Par ch=6 c=7 v=60
4072 Par ch=6 c=7 v=61
4084 Par ch=6 c=7 v=63
4100 Par ch=6 c=7 v=64
4112 Par ch=6 c=7 v=65
4128 Par ch=6 c=7 v=67
4160 Par ch=6 c=7 v=68
4172 Par ch=6 c=7 v=69
4184 Par ch=6 c=7 v=70
4200 Par ch=6 c=7 v=71
4212 Par ch=6 c=7 v=72
4228 Par ch=6 c=7 v=73
4240 Par ch=6 c=7 v=75
4256 Par ch=6 c=7 v=76
4272 Par ch=6 c=7 v=77
4284 Par ch=6 c=7 v=78
4312 Par ch=6 c=7 v=79
4340 Par ch=6 c=7 v=81
4356 Par ch=6 c=7 v=82
4368 Par ch=6 c=7 v=84
4384 Par ch=6 c=7 v=85
4400 Par ch=6 c=7 v=87
4416 Par ch=6 c=7 v=88
4428 Par ch=6 c=7 v=86
4440 Par ch=6 c=7 v=82
4456 Par ch=6 c=7 v=76
4468 Par ch=6 c=7 v=69
4484 Par ch=6 c=7 v=60
4496 Par ch=6 c=7 v=53
4512 Par ch=6 c=7 v=48
4528 Par ch=6 c=7 v=45
4540 Par ch=6 c=7 v=44
4584 Par ch=6 c=7 v=45
4608 Par ch=6 c=7 v=46
4656 Par ch=6 c=7 v=47
4668 Par ch=6 c=7 v=48
4684 Par ch=6 c=7 v=50
4696 Par ch=6 c=7 v=52
4708 Par ch=6 c=7 v=53
4724 Par ch=6 c=7 v=54
4852 Par ch=6 c=7 v=53
5192 Par ch=6 c=7 v=52
5208 Par ch=6 c=7 v=51
5236 Par ch=6 c=7 v=50
5264 Par ch=6 c=7 v=49
5280 Par ch=6 c=7 v=48
5292 Par ch=6 c=7 v=47
5308 Par ch=6 c=7 v=46
5320 Par ch=6 c=7 v=45
5336 Par ch=6 c=7 v=44
5348 Par ch=6 c=7 v=43
5364 Par ch=6 c=7 v=41
5376 Par ch=6 c=7 v=40
5408 Par ch=6 c=7 v=38
5420 Par ch=6 c=7 v=37
5436 Par ch=6 c=7 v=36
5448 Par ch=6 c=7 v=35
5464 Par ch=6 c=7 v=34
5492 Par ch=6 c=7 v=33
5504 Par ch=6 c=7 v=32
5520 Par ch=6 c=7 v=30
5536 Par ch=6 c=7 v=29
5548 Par ch=6 c=7 v=27
5564 Par ch=6 c=7 v=26
5576 Par ch=6 c=7 v=25
5592 Par ch=6 c=7 v=24
5604 Par ch=6 c=7 v=22
5620 Par ch=6 c=7 v=21
5648 Par ch=6 c=7 v=20
5692 Par ch=6 c=7 v=21
5748 Par ch=6 c=7 v=22
5760 Par ch=6 c=7 v=23
5776 Par ch=6 c=7 v=25
5792 Par ch=6 c=7 v=27
5808 Par ch=6 c=7 v=30
5820 Par ch=6 c=7 v=31
5836 Par ch=6 c=7 v=33
5848 Par ch=6 c=7 v=34
5860 Par ch=6 c=7 v=35
5876 Par ch=6 c=7 v=37
5888 Par ch=6 c=7 v=38
5904 Par ch=6 c=7 v=39
5920 Par ch=6 c=7 v=41
5932 Par ch=6 c=7 v=42
5948 Par ch=6 c=7 v=44
5960 Par ch=6 c=7 v=45
5976 Par ch=6 c=7 v=46
5988 Par ch=6 c=7 v=47
6004 Par ch=6 c=7 v=48
6016 Par ch=6 c=7 v=49
6032 Par ch=6 c=7 v=51
6048 Par ch=6 c=7 v=52
6060 Par ch=6 c=7 v=54
6076 Par ch=6 c=7 v=56
6088 Par ch=6 c=7 v=58
6100 Par ch=6 c=7 v=60
6116 Par ch=6 c=7 v=62
6128 Par ch=6 c=7 v=64
6144 Par ch=6 c=7 v=66
6160 Par ch=6 c=7 v=67
6172 Par ch=6 c=7 v=69
6184 Par ch=6 c=7 v=71
6196 Par ch=6 c=7 v=72
6208 Par ch=6 c=7 v=80
6224 Par ch=6 c=7 v=81
6240 Par ch=6 c=7 v=82
6252 Par ch=6 c=7 v=84
6276 Par ch=6 c=7 v=83
6288 Par ch=6 c=7 v=81
6304 Par ch=6 c=7 v=78
6316 Par ch=6 c=7 v=73
6332 Par ch=6 c=7 v=70
6344 Par ch=6 c=7 v=66
6356 Par ch=6 c=7 v=64
6368 Par ch=6 c=7 v=62
6384 Par ch=6 c=7 v=61
6396 Par ch=6 c=7 v=60
6420 Par ch=6 c=7 v=59
6436 Par ch=6 c=7 v=58
6448 Par ch=6 c=7 v=57
6464 Par ch=6 c=7 v=56
6476 Par ch=6 c=7 v=55
6488 Par ch=6 c=7 v=54
6652 Par ch=6 c=7 v=53
6664 Par ch=6 c=7 v=52
6676 Par ch=6 c=7 v=51
6688 Par ch=6 c=7 v=50
6728 Par ch=6 c=7 v=49
6788 Par ch=6 c=7 v=48
6828 Par ch=6 c=7 v=49
7216 Par ch=6 c=7 v=47
7284 Par ch=6 c=7 v=46
7600 Par ch=6 c=7 v=44
7632 Par ch=6 c=7 v=45
7668 Par ch=6 c=7 v=44
7696 On ch=6 n=60 v=127
8380 Off ch=6 n=60 v=0
8408 Par ch=6 c=7 v=47
8420 Par ch=6 c=7 v=48
8448 On ch=6 n=67 v=127
8484 Par ch=6 c=7 v=49
9128 Off ch=6 n=67 v=0
9172 Par ch=6 c=7 v=51
9184 On ch=6 n=72 v=127
9184 Par ch=6 c=7 v=52
9212 Par ch=6 c=7 v=53
9236 Par ch=6 c=7 v=54
9264 Par ch=6 c=7 v=52
9276 Par ch=6 c=7 v=49
9288 Par ch=6 c=7 v=46
9300 Par ch=6 c=7 v=44
9312 Par ch=6 c=7 v=43
9328 Par ch=6 c=7 v=42
9340 Par ch=6 c=7 v=41
9364 Par ch=6 c=7 v=39
9376 Par ch=6 c=7 v=37
9392 Par ch=6 c=7 v=34
9404 Par ch=6 c=7 v=32
9416 Par ch=6 c=7 v=31
9428 Par ch=6 c=7 v=30
9492 Par ch=6 c=7 v=31
9504 Par ch=6 c=7 v=32
9520 Par ch=6 c=7 v=33
9532 Par ch=6 c=7 v=35
9544 Par ch=6 c=7 v=36
9568 Par ch=6 c=7 v=37
9584 Par ch=6 c=7 v=38
9596 Par ch=6 c=7 v=39
9608 Par ch=6 c=7 v=40
9620 Par ch=6 c=7 v=41
9660 Par ch=6 c=7 v=43
9672 Par ch=6 c=7 v=44
9684 Par ch=6 c=7 v=45
9720 Par ch=6 c=7 v=46
9732 Par ch=6 c=7 v=47
9760 Par ch=6 c=7 v=48
9776 Par ch=6 c=7 v=49
9796 Par ch=6 c=7 v=50
9808 Par ch=6 c=7 v=51
9824 Par ch=6 c=7 v=52
9848 Par ch=6 c=7 v=53
9872 Par ch=6 c=7 v=54
9888 Par ch=6 c=7 v=55
9900 Par ch=6 c=7 v=56
9924 Par ch=6 c=7 v=57
9936 Par ch=6 c=7 v=58
9952 Par ch=6 c=7 v=59
9964 Par ch=6 c=7 v=60
9976 Par ch=6 c=7 v=61
9988 Par ch=6 c=7 v=62
10000 Par ch=6 c=7 v=63
10016 Par ch=6 c=7 v=64
10028 Par ch=6 c=7 v=66
10052 Par ch=6 c=7 v=67
10064 Par ch=6 c=7 v=68
10080 Par ch=6 c=7 v=69
10092 Par ch=6 c=7 v=70
10104 Par ch=6 c=7 v=71
10116 Par ch=6 c=7 v=72
10144 Par ch=6 c=7 v=74
10180 Par ch=6 c=7 v=75
10192 Par ch=6 c=7 v=76
10220 Par ch=6 c=7 v=77
10232 Par ch=6 c=7 v=78
10244 Par ch=6 c=7 v=79
10284 Par ch=6 c=7 v=80
10296 Par ch=6 c=7 v=81
10308 Par ch=6 c=7 v=82
10348 Par ch=6 c=7 v=83
10360 Par ch=6 c=7 v=84
10372 Par ch=6 c=7 v=85
10384 Par ch=6 c=7 v=86
10400 Par ch=6 c=7 v=87
10488 Par ch=6 c=7 v=86
10500 Par ch=6 c=7 v=83
10508 Off ch=6 n=72 v=0
10512 Par ch=6 c=7 v=79
10528 Par ch=6 c=7 v=73
10540 Par ch=6 c=7 v=68
10552 Par ch=6 c=7 v=63
10564 Par ch=6 c=7 v=59
10576 Par ch=6 c=7 v=57
10592 Par ch=6 c=7 v=56
10604 Par ch=6 c=7 v=55
10624 Par ch=6 c=7 v=54
10660 On ch=6 n=72 v=127
10664 On ch=6 n=67 v=127
10664 On ch=6 n=75 v=127
10668 Par ch=6 c=7 v=55
10680 Par ch=6 c=7 v=54
10692 Off ch=6 n=67 v=0
10692 Par ch=6 c=7 v=53
10700 Off ch=6 n=72 v=0
10712 Off ch=6 n=75 v=0
10728 Par ch=6 c=7 v=54
10740 Par ch=6 c=7 v=56
10752 Par ch=6 c=7 v=59
10768 Par ch=6 c=7 v=62
10784 Par ch=6 c=7 v=63
10792 On ch=6 n=76 v=127
10792 On ch=6 n=72 v=127
10796 Par ch=6 c=7 v=64
10796 On ch=6 n=67 v=127
10808 Par ch=6 c=7 v=66
10820 Par ch=6 c=7 v=68
10832 Par ch=6 c=7 v=70
10848 Par ch=6 c=7 v=71
10872 Par ch=6 c=7 v=70
10884 Par ch=6 c=7 v=68
10896 Par ch=6 c=7 v=67
10912 Par ch=6 c=7 v=66
10988 Par ch=6 c=7 v=65
11024 Par ch=6 c=7 v=64
11116 Par ch=6 c=7 v=63
11128 Par ch=6 c=7 v=62
11152 Par ch=6 c=7 v=61
11180 Par ch=6 c=7 v=60
11204 Par ch=6 c=7 v=59
11252 Par ch=6 c=7 v=57
11264 Par ch=6 c=7 v=56
11292 Par ch=6 c=7 v=55
11328 Par ch=6 c=7 v=54
11368 Par ch=6 c=7 v=53
11408 Par ch=6 c=7 v=52
11432 Par ch=6 c=7 v=51
11444 Par ch=6 c=7 v=50
11472 Par ch=6 c=7 v=49
11484 Par ch=6 c=7 v=48
11508 Par ch=6 c=7 v=47
11520 Par ch=6 c=7 v=46
11548 Par ch=6 c=7 v=45
11572 Par ch=6 c=7 v=44
11584 Par ch=6 c=7 v=43
11600 Par ch=6 c=7 v=42
11612 Par ch=6 c=7 v=41
11636 Par ch=6 c=7 v=40
11664 Par ch=6 c=7 v=39
11688 Par ch=6 c=7 v=38
11700 Par ch=6 c=7 v=37
11764 Par ch=6 c=7 v=38
11776 Par ch=6 c=7 v=39
11792 Par ch=6 c=7 v=40
11804 Par ch=6 c=7 v=42
11816 Par ch=6 c=7 v=43
11828 Par ch=6 c=7 v=44
11840 Par ch=6 c=7 v=45
11856 Par ch=6 c=7 v=46
11868 Par ch=6 c=7 v=48
11880 Par ch=6 c=7 v=49
11920 Par ch=6 c=7 v=50
11932 Par ch=6 c=7 v=51
11944 Par ch=6 c=7 v=52
11956 Par ch=6 c=7 v=53
11968 Par ch=6 c=7 v=54
11984 Par ch=6 c=7 v=55
11996 Par ch=6 c=7 v=56
12020 Par ch=6 c=7 v=57
12032 Par ch=6 c=7 v=59
12048 Par ch=6 c=7 v=60
12060 Par ch=6 c=7 v=61
12072 Par ch=6 c=7 v=62
12084 Par ch=6 c=7 v=63
12096 Par ch=6 c=7 v=64
12112 Par ch=6 c=7 v=65
12124 Par ch=6 c=7 v=66
12148 Par ch=6 c=7 v=67
12160 Par ch=6 c=7 v=68
12172 Par ch=6 c=7 v=69
12196 Par ch=6 c=7 v=71
12212 Par ch=6 c=7 v=72
12224 Par ch=6 c=7 v=74
12236 Par ch=6 c=7 v=75
12272 Par ch=6 c=7 v=76
12300 Par ch=6 c=7 v=77
12336 Par ch=6 c=7 v=78
12352 Par ch=6 c=7 v=79
12376 Par ch=6 c=7 v=80
12384 Off ch=6 n=67 v=0
12392 Off ch=6 n=72 v=0
12396 Off ch=6 n=76 v=0
12416 Par ch=6 c=7 v=81
12452 Par ch=6 c=7 v=79
12464 Par ch=6 c=7 v=76
12480 Par ch=6 c=7 v=73
12492 Par ch=6 c=7 v=69
12504 Par ch=6 c=7 v=65
12516 Par ch=6 c=7 v=63
12528 Par ch=6 c=7 v=62
12540 Par ch=6 c=7 v=60
12552 Par ch=6 c=7 v=58
12564 Par ch=6 c=7 v=57
12576 Par ch=6 c=7 v=55
12592 Par ch=6 c=7 v=54
12604 Par ch=6 c=7 v=53
12628 Par ch=6 c=7 v=52
12640 Par ch=6 c=7 v=51
12652 Par ch=6 c=7 v=50
12664 Par ch=6 c=7 v=49
12676 Par ch=6 c=7 v=48
12724 Par ch=6 c=7 v=47
12764 Par ch=6 c=7 v=48
13168 Par ch=6 c=7 v=46
13188 Par ch=6 c=7 v=47
13312 Par ch=6 c=7 v=46
13824 On ch=6 n=60 v=127
14232 Par ch=6 c=7 v=54
14296 Par ch=6 c=7 v=55
14400 Par ch=6 c=7 v=56
14448 Par ch=6 c=7 v=57
14476 Par ch=6 c=7 v=58
14488 Off ch=6 n=60 v=0
14540 Par ch=6 c=7 v=59
14592 On ch=6 n=67 v=127
14604 Par ch=6 c=7 v=60
14640 Par ch=6 c=7 v=59
15152 Par ch=6 c=7 v=61
15188 Par ch=6 c=7 v=62
15236 Off ch=6 n=67 v=0
15252 Par ch=6 c=7 v=60
15264 Par ch=6 c=7 v=59
15280 Par ch=6 c=7 v=58
15292 Par ch=6 c=7 v=55
15308 Par ch=6 c=7 v=53
15320 Par ch=6 c=7 v=52
15332 Par ch=6 c=7 v=51
15344 Par ch=6 c=7 v=50
15360 Par ch=6 c=7 v=49
15360 On ch=6 n=72 v=127
15408 Par ch=6 c=7 v=48
15728 Par ch=6 c=7 v=46
15916 Par ch=6 c=7 v=52
15932 Par ch=6 c=7 v=53
15944 Par ch=6 c=7 v=54
15956 Par ch=6 c=7 v=55
15968 Par ch=6 c=7 v=56
15980 Par ch=6 c=7 v=57
15992 Par ch=6 c=7 v=58
16004 Par ch=6 c=7 v=59
16016 Par ch=6 c=7 v=60
16044 Par ch=6 c=7 v=61
16060 Par ch=6 c=7 v=62
16072 Par ch=6 c=7 v=63
16096 Par ch=6 c=7 v=64
16112 Par ch=6 c=7 v=65
16124 Par ch=6 c=7 v=66
16136 Par ch=6 c=7 v=67
16160 Par ch=6 c=7 v=68
16200 Par ch=6 c=7 v=70
16240 Par ch=6 c=7 v=71
16260 Par ch=6 c=7 v=72
16288 Par ch=6 c=7 v=73
16328 Par ch=6 c=7 v=74
16364 Par ch=6 c=7 v=75
16416 Par ch=6 c=7 v=76
16440 Par ch=6 c=7 v=77
16464 Par ch=6 c=7 v=78
16504 Par ch=6 c=7 v=79
16556 Par ch=6 c=7 v=80
16580 Par ch=6 c=7 v=81
16620 Par ch=6 c=7 v=82
16672 Par ch=6 c=7 v=80
16684 Par ch=6 c=7 v=77
16696 Par ch=6 c=7 v=72
16704 Off ch=6 n=72 v=0
16708 Par ch=6 c=7 v=68
16720 Par ch=6 c=7 v=64
16736 Par ch=6 c=7 v=61
16748 Par ch=6 c=7 v=59
16760 Par ch=6 c=7 v=57
16772 Par ch=6 c=7 v=55
16784 Par ch=6 c=7 v=52
16800 Par ch=6 c=7 v=50
16808 Par ch=6 c=7 v=47
16816 On ch=6 n=64 v=127
16816 On ch=6 n=60 v=127
16824 Par ch=6 c=7 v=45
16836 Par ch=6 c=7 v=43
16848 Par ch=6 c=7 v=42
16868 Off ch=6 n=60 v=0
16876 Par ch=6 c=7 v=43
16884 Off ch=6 n=64 v=0
16888 Par ch=6 c=7 v=44
16900 Par ch=6 c=7 v=45
16912 Par ch=6 c=7 v=47
16928 Par ch=6 c=7 v=50
16940 Par ch=6 c=7 v=53
16944 On ch=6 n=69 v=127
16948 On ch=6 n=65 v=127
16952 Par ch=6 c=7 v=57
16964 Par ch=6 c=7 v=62
16976 Par ch=6 c=7 v=68
16992 Par ch=6 c=7 v=72
17004 Par ch=6 c=7 v=75
17016 Par ch=6 c=7 v=76
17040 Par ch=6 c=7 v=75
17080 Par ch=6 c=7 v=74
17092 Par ch=6 c=7 v=73
17120 Par ch=6 c=7 v=72
17244 Par ch=6 c=7 v=71
17296 Par ch=6 c=7 v=70
17384 Par ch=6 c=7 v=69
17564 Par ch=6 c=7 v=68
17588 Par ch=6 c=7 v=67
17600 Par ch=6 c=7 v=65
17616 Par ch=6 c=7 v=64
17628 Par ch=6 c=7 v=63
17640 Par ch=6 c=7 v=62
17652 Par ch=6 c=7 v=61
17664 Par ch=6 c=7 v=60
17680 Par ch=6 c=7 v=58
17692 Par ch=6 c=7 v=57
17704 Par ch=6 c=7 v=56
17716 Par ch=6 c=7 v=54
17728 Par ch=6 c=7 v=52
17744 Par ch=6 c=7 v=50
17756 Par ch=6 c=7 v=47
17768 Par ch=6 c=7 v=45
17780 Par ch=6 c=7 v=42
17792 Par ch=6 c=7 v=39
17808 Par ch=6 c=7 v=37
17832 Par ch=6 c=7 v=36
17844 Par ch=6 c=7 v=35
17872 Par ch=6 c=7 v=34
17936 Par ch=6 c=7 v=35
17948 Par ch=6 c=7 v=36
17960 Par ch=6 c=7 v=38
17972 Par ch=6 c=7 v=40
17984 Par ch=6 c=7 v=42
18000 Par ch=6 c=7 v=43
18012 Par ch=6 c=7 v=45
18024 Par ch=6 c=7 v=46
18036 Par ch=6 c=7 v=47
18048 Par ch=6 c=7 v=49
18064 Par ch=6 c=7 v=51
18072 Par ch=6 c=7 v=53
18084 Par ch=6 c=7 v=55
18096 Par ch=6 c=7 v=56
18112 Par ch=6 c=7 v=57
18128 Par ch=6 c=7 v=58
18140 Par ch=6 c=7 v=59
18148 Par ch=6 c=7 v=60
18160 Par ch=6 c=7 v=61
18176 Par ch=6 c=7 v=62
18188 Par ch=6 c=7 v=64
18200 Par ch=6 c=7 v=65
18212 Par ch=6 c=7 v=66
18224 Par ch=6 c=7 v=68
18240 Par ch=6 c=7 v=69
18252 Par ch=6 c=7 v=70
18276 Par ch=6 c=7 v=72
18288 Par ch=6 c=7 v=73
18304 Par ch=6 c=7 v=74
18316 Par ch=6 c=7 v=75
18332 Off ch=6 n=69 v=0
18344 Off ch=6 n=65 v=0
18352 Par ch=6 c=7 v=76
18368 Par ch=6 c=7 v=77
18384 Par ch=6 c=7 v=78
18420 Par ch=6 c=7 v=79
18432 Par ch=6 c=7 v=80
18520 On ch=6 n=53 v=93
18604 Par ch=6 c=7 v=80
19628 On ch=6 n=68 v=127
19632 On ch=6 n=65 v=127
19912 Off ch=6 n=53 v=0
19996 Off ch=6 n=68 v=0
20004 Off ch=6 n=65 v=0
20224 On ch=6 n=62 v=127
20352 Par ch=6 c=7 v=127
20388 Off ch=6 n=62 v=0
20408 On ch=6 n=67 v=127
20412 On ch=6 n=64 v=70
20540 Off ch=6 n=67 v=0
20592 On ch=6 n=64 v=127
20696 Off ch=6 n=64 v=0
20772 On ch=6 n=60 v=127
20864 Off ch=6 n=60 v=0
20952 On ch=6 n=55 v=127
21044 Off ch=6 n=55 v=0
21124 On ch=6 n=52 v=127
21228 Off ch=6 n=64 v=0
21228 Off ch=6 n=52 v=0
21316 On ch=6 n=48 v=127
21324 On ch=6 n=60 v=90
21416 Off ch=6 n=48 v=0
21420 Off ch=6 n=60 v=0
21424 On ch=6 n=62 v=90
21504 Off ch=6 n=62 v=0
21504 On ch=6 n=43 v=127
21532 On ch=6 n=64 v=90
22196 Off ch=6 n=64 v=0
22216 Off ch=6 n=43 v=0
22264 On ch=6 n=60 v=90
22472 Par ch=6 c=7 v=96
22504 Par ch=6 c=7 v=95
22524 Par ch=6 c=7 v=94
22556 Par ch=6 c=7 v=93
22640 Off ch=6 n=60 v=0
22656 Par ch=6 c=7 v=92
22688 On ch=6 n=62 v=127
22792 Par ch=6 c=7 v=91
23080 Par ch=6 c=7 v=89
23120 Par ch=6 c=7 v=88
23132 Par ch=6 c=7 v=87
23160 Par ch=6 c=7 v=86
23176 Off ch=6 n=62 v=0
23264 Par ch=6 c=7 v=85
23276 Par ch=6 c=7 v=83
23284 Par ch=6 c=7 v=82
23316 Par ch=6 c=7 v=83
23388 Par ch=6 c=7 v=82
23408 Par ch=6 c=7 v=81
23420 Par ch=6 c=7 v=80
23428 Par ch=6 c=7 v=79
23440 Par ch=6 c=7 v=78
23452 Par ch=6 c=7 v=77
23460 Par ch=6 c=7 v=76
23520 Par ch=6 c=7 v=77
23532 Par ch=6 c=7 v=78
23552 Par ch=6 c=7 v=79
23648 Par ch=6 c=7 v=80
23664 Par ch=6 c=7 v=81
23792 Par ch=6 c=7 v=76
23808 Par ch=6 c=7 v=75
23828 Par ch=6 c=7 v=74
23840 Par ch=6 c=7 v=73
23852 Par ch=6 c=7 v=72
23872 Par ch=6 c=7 v=71
23912 Par ch=6 c=7 v=70
23944 Par ch=6 c=7 v=69
23968 Par ch=6 c=7 v=68
23996 Par ch=6 c=7 v=67
24036 Par ch=6 c=7 v=66
24068 Par ch=6 c=7 v=65
24128 Par ch=6 c=7 v=64
24224 Par ch=6 c=7 v=63
24272 Par ch=6 c=7 v=62
24304 Par ch=6 c=7 v=61
24336 Par ch=6 c=7 v=60
24356 Par ch=6 c=7 v=59
24376 Par ch=6 c=7 v=58
24396 Par ch=6 c=7 v=57
24408 Par ch=6 c=7 v=56
24428 Par ch=6 c=7 v=55
24448 Par ch=6 c=7 v=54
24480 Par ch=6 c=7 v=53
24488 Par ch=6 c=7 v=52
24512 Par ch=6 c=7 v=51
24520 Par ch=6 c=7 v=50
24544 Par ch=6 c=7 v=49
24560 Par ch=6 c=7 v=48
24584 Par ch=6 c=7 v=47
24592 Par ch=6 c=7 v=46
24604 Par ch=6 c=7 v=45
24612 Par ch=6 c=7 v=44
24624 Par ch=6 c=7 v=43
24656 Par ch=6 c=7 v=42
24664 Par ch=6 c=7 v=41
24676 Par ch=6 c=7 v=40
24688 Par ch=6 c=7 v=39
24696 Par ch=6 c=7 v=38
24704 Par ch=6 c=7 v=37
24716 Par ch=6 c=7 v=36
24736 Par ch=6 c=7 v=35
24748 Par ch=6 c=7 v=34
24756 Par ch=6 c=7 v=33
24768 Par ch=6 c=7 v=32
24780 Par ch=6 c=7 v=31
24788 Par ch=6 c=7 v=30
24808 Par ch=6 c=7 v=29
24816 Par ch=6 c=7 v=28
24860 Par ch=6 c=7 v=27
24868 Par ch=6 c=7 v=25
24880 Par ch=6 c=7 v=24
24900 Par ch=6 c=7 v=23
24944 Par ch=6 c=7 v=22
24952 Par ch=6 c=7 v=21
24960 Par ch=6 c=7 v=20
25012 Par ch=6 c=7 v=21
25036 Par ch=6 c=7 v=22
25044 Par ch=6 c=7 v=23
25056 Par ch=6 c=7 v=24
25088 Par ch=6 c=7 v=25
25116 Par ch=6 c=7 v=26
25148 Par ch=6 c=7 v=27
25160 Par ch=6 c=7 v=28
25168 Par ch=6 c=7 v=29
25180 Par ch=6 c=7 v=30
25188 Par ch=6 c=7 v=31
25200 Par ch=6 c=7 v=32
25212 Par ch=6 c=7 v=34
25220 Par ch=6 c=7 v=35
25232 Par ch=6 c=7 v=36
25252 Par ch=6 c=7 v=37
25264 Par ch=6 c=7 v=38
25272 Par ch=6 c=7 v=39
25280 Par ch=6 c=7 v=41
25292 Par ch=6 c=7 v=42
25304 Par ch=6 c=7 v=43
25312 Par ch=6 c=7 v=45
25324 Par ch=6 c=7 v=46
25332 Par ch=6 c=7 v=48
25356 Par ch=6 c=7 v=50
25364 Par ch=6 c=7 v=51
25376 Par ch=6 c=7 v=53
25384 Par ch=6 c=7 v=54
25396 Par ch=6 c=7 v=55
25408 Par ch=6 c=7 v=56
25416 Par ch=6 c=7 v=58
25424 Par ch=6 c=7 v=59
25436 Par ch=6 c=7 v=60
25448 Par ch=6 c=7 v=62
25468 Par ch=6 c=7 v=64
25476 Par ch=6 c=7 v=66
25488 Par ch=6 c=7 v=67
25500 Par ch=6 c=7 v=69
25508 Par ch=6 c=7 v=71
25520 Par ch=6 c=7 v=72
25528 Par ch=6 c=7 v=73
25536 Par ch=6 c=7 v=74
25552 Par ch=6 c=7 v=75
25568 Par ch=6 c=7 v=77
25580 Par ch=6 c=7 v=78
25588 Par ch=6 c=7 v=80
25600 Par ch=6 c=7 v=81
25612 Par ch=6 c=7 v=82
25620 Par ch=6 c=7 v=83
25632 Par ch=6 c=7 v=84
25644 Par ch=6 c=7 v=85
25652 Par ch=6 c=7 v=86
25672 Par ch=6 c=7 v=87
25680 Par ch=6 c=7 v=88
25696 Par ch=6 c=7 v=89
25704 Par ch=6 c=7 v=90
25732 Par ch=6 c=7 v=91
25764 Par ch=6 c=7 v=92
25796 Par ch=6 c=7 v=93
25808 Par ch=6 c=7 v=94
25816 Par ch=6 c=7 v=95
25828 Par ch=6 c=7 v=96
25848 Par ch=6 c=7 v=97
25880 Par ch=6 c=7 v=98
25900 Par ch=6 c=7 v=99
25920 Par ch=6 c=7 v=100
25940 Par ch=6 c=7 v=102
25972 Par ch=6 c=7 v=103
25984 Par ch=6 c=7 v=104
25992 Par ch=6 c=7 v=105
26000 Par ch=6 c=7 v=106
26032 Par ch=6 c=7 v=107
26044 Par ch=6 c=7 v=108
26064 Par ch=6 c=7 v=109
26076 Par ch=6 c=7 v=110
26084 Par ch=6 c=7 v=111
26104 Par ch=6 c=7 v=112
26136 Par ch=6 c=7 v=114
26144 Par ch=6 c=7 v=115
26156 Par ch=6 c=7 v=116
26176 Par ch=6 c=7 v=117
26208 Par ch=6 c=7 v=119
26240 Par ch=6 c=7 v=120
26256 Par ch=6 c=7 v=119
26256 Meta TrkEnd
TrkEnd
MTrk
0 Meta TrkName "Violin 2"
0 Par ch=7 c=0 v=0
0 PrCh ch=7 p=48
0 Par ch=7 c=10 v=70
0 KeySig 0 major
4496 On ch=7 n=72 v=74
4496 On ch=7 n=60 v=84
4572 Off ch=7 n=60 v=0
4576 Off ch=7 n=72 v=0
4660 On ch=7 n=72 v=96
4660 On ch=7 n=60 v=111
6272 Off ch=7 n=72 v=0
6296 Off ch=7 n=60 v=0
10656 On ch=7 n=75 v=84
10656 On ch=7 n=67 v=81
10716 Off ch=7 n=75 v=0
10716 Off ch=7 n=67 v=0
10788 On ch=7 n=76 v=117
10792 On ch=7 n=67 v=93
12412 Off ch=7 n=67 v=0
12416 Off ch=7 n=76 v=0
12416 Meta TrkEnd
TrkEnd
MTrk
0 Meta TrkName "Cello"
0 Par ch=7 c=0 v=0
0 PrCh ch=7 p=48
0 Par ch=7 c=10 v=70
0 KeySig 0 major
16804 On ch=7 n=64 v=102
16808 On ch=7 n=60 v=58
16896 Off ch=7 n=64 v=0
16900 Off ch=7 n=60 v=0
16928 On ch=7 n=65 v=102
18456 Off ch=7 n=65 v=0
18492 On ch=7 n=69 v=124
18492 On ch=7 n=65 v=124
18608 On ch=7 n=71 v=124
18608 On ch=7 n=67 v=124
18624 Off ch=7 n=65 v=0
18628 Off ch=7 n=69 v=0
18724 On ch=7 n=72 v=124
18736 On ch=7 n=69 v=124
18752 Off ch=7 n=67 v=0
18760 Off ch=7 n=71 v=0
19664 On ch=7 n=68 v=124
19680 Off ch=7 n=69 v=0
20080 Off ch=7 n=68 v=0
20220 Off ch=7 n=72 v=0
21328 On ch=7 n=64 v=127
21432 On ch=7 n=65 v=127
21448 Off ch=7 n=64 v=0
21532 On ch=7 n=67 v=127
21536 Off ch=7 n=65 v=0
22224 Off ch=7 n=67 v=0
22276 On ch=7 n=69 v=127
22276 On ch=7 n=64 v=127
22748 Off ch=7 n=69 v=0
22748 On ch=7 n=62 v=127
22752 Off ch=7 n=64 v=0
22752 On ch=7 n=67 v=127
23200 Off ch=7 n=67 v=0
23248 Off ch=7 n=62 v=0
23248 On ch=7 n=67 v=100
23248 On ch=7 n=60 v=100
26176 Off ch=7 n=60 v=0
26184 Off ch=7 n=67 v=0
26184 Meta TrkEnd
TrkEnd
MTrk
0 Meta TrkName "Violin 1"
0 Par ch=7 c=0 v=0
0 PrCh ch=7 p=48
0 Par ch=7 c=10 v=70
0 KeySig 0 major
0 Par ch=7 c=7 v=66
0 Pb ch=7 v=8192
0 Par ch=7 c=64 v=0
0 Par ch=7 c=1 v=0
4336 Par ch=7 c=7 v=72
4352 Par ch=7 c=7 v=73
4368 Par ch=7 c=7 v=75
4380 Par ch=7 c=7 v=77
4396 Par ch=7 c=7 v=78
4408 Par ch=7 c=7 v=80
4424 Par ch=7 c=7 v=82
4436 Par ch=7 c=7 v=84
4452 Par ch=7 c=7 v=86
4468 Par ch=7 c=7 v=88
4480 Par ch=7 c=7 v=90
4496 Par ch=7 c=7 v=92
4500 On ch=7 n=72 v=111
4500 On ch=7 n=67 v=124
4504 On ch=7 n=76 v=111
4504 On ch=7 n=60 v=93
4512 Par ch=7 c=7 v=94
4524 Par ch=7 c=7 v=96
4540 Par ch=7 c=7 v=98
4560 Off ch=7 n=67 v=0
4564 Off ch=7 n=72 v=0
4564 Off ch=7 n=60 v=0
4564 Par ch=7 c=7 v=99
4568 Off ch=7 n=76 v=0
4636 On ch=7 n=72 v=108
4636 On ch=7 n=67 v=96
4636 On ch=7 n=75 v=127
4640 On ch=7 n=60 v=127
4680 Par ch=7 c=7 v=100
4720 Par ch=7 c=7 v=101
4796 Par ch=7 c=7 v=100
4808 Par ch=7 c=7 v=101
4864 Par ch=7 c=7 v=102
4920 Par ch=7 c=7 v=101
4948 Par ch=7 c=7 v=102
5008 Par ch=7 c=7 v=103
5360 Par ch=7 c=7 v=101
5392 Par ch=7 c=7 v=100
5420 Par ch=7 c=7 v=99
5432 Par ch=7 c=7 v=98
5448 Par ch=7 c=7 v=97
5460 Par ch=7 c=7 v=96
5476 Par ch=7 c=7 v=95
5504 Par ch=7 c=7 v=94
5520 Par ch=7 c=7 v=93
5532 Par ch=7 c=7 v=92
5548 Par ch=7 c=7 v=91
5588 Par ch=7 c=7 v=90
5600 Par ch=7 c=7 v=89
5616 Par ch=7 c=7 v=88
5632 Par ch=7 c=7 v=87
5688 Par ch=7 c=7 v=86
5716 Par ch=7 c=7 v=85
5744 Par ch=7 c=7 v=86
5760 Par ch=7 c=7 v=87
5776 Par ch=7 c=7 v=88
5788 Par ch=7 c=7 v=89
5804 Par ch=7 c=7 v=90
5828 Par ch=7 c=7 v=91
5856 Par ch=7 c=7 v=92
5872 Par ch=7 c=7 v=93
5888 Par ch=7 c=7 v=94
5904 Par ch=7 c=7 v=95
5916 Par ch=7 c=7 v=96
5928 Par ch=7 c=7 v=97
5956 Par ch=7 c=7 v=98
5972 Par ch=7 c=7 v=99
5984 Par ch=7 c=7 v=100
6016 Par ch=7 c=7 v=101
6028 Par ch=7 c=7 v=102
6044 Par ch=7 c=7 v=103
6056 Par ch=7 c=7 v=104
6072 Par ch=7 c=7 v=105
6084 Par ch=7 c=7 v=106
6096 Par ch=7 c=7 v=107
6112 Par ch=7 c=7 v=109
6128 Par ch=7 c=7 v=110
6144 Par ch=7 c=7 v=112
6156 Par ch=7 c=7 v=114
6168 Par ch=7 c=7 v=116
6184 Par ch=7 c=7 v=117
6196 Par ch=7 c=7 v=118
6208 Par ch=7 c=7 v=120
6212 Off ch=7 n=67 v=0
6212 Off ch=7 n=72 v=0
6216 Off ch=7 n=75 v=0
6224 Off ch=7 n=60 v=0
6224 Par ch=7 c=7 v=122
6236 Par ch=7 c=7 v=124
6276 Par ch=7 c=7 v=122
6288 Par ch=7 c=7 v=119
6304 Par ch=7 c=7 v=118
6316 Par ch=7 c=7 v=117
6328 Par ch=7 c=7 v=116
6352 Par ch=7 c=7 v=114
6368 Par ch=7 c=7 v=111
6380 Par ch=7 c=7 v=106
6392 Par ch=7 c=7 v=101
6404 Par ch=7 c=7 v=95
6420 Par ch=7 c=7 v=91
6432 Par ch=7 c=7 v=88
6448 Par ch=7 c=7 v=84
6460 Par ch=7 c=7 v=81
6472 Par ch=7 c=7 v=77
6484 Par ch=7 c=7 v=75
6496 Par ch=7 c=7 v=73
6512 Par ch=7 c=7 v=72
6524 Par ch=7 c=7 v=71
6560 Par ch=7 c=7 v=70
10384 Par ch=7 c=7 v=96
10396 Par ch=7 c=7 v=99
10408 Par ch=7 c=7 v=100
10420 Par ch=7 c=7 v=101
10448 Par ch=7 c=7 v=102
10460 Par ch=7 c=7 v=103
10472 Par ch=7 c=7 v=104
10484 Par ch=7 c=7 v=105
10512 Par ch=7 c=7 v=106
10524 Par ch=7 c=7 v=107
10560 Par ch=7 c=7 v=108
10612 Par ch=7 c=7 v=109
10624 Par ch=7 c=7 v=112
10640 Par ch=7 c=7 v=114
10652 Par ch=7 c=7 v=115
10664 On ch=7 n=75 v=77
10664 Par ch=7 c=7 v=116
10664 On ch=7 n=79 v=96
10664 On ch=7 n=67 v=127
10676 Par ch=7 c=7 v=117
10688 Par ch=7 c=7 v=118
10704 Par ch=7 c=7 v=119
10712 Off ch=7 n=75 v=0
10720 Off ch=7 n=67 v=0
10724 Off ch=7 n=79 v=0
10740 Par ch=7 c=7 v=120
10780 Par ch=7 c=7 v=121
10792 Par ch=7 c=7 v=125
10796 On ch=7 n=76 v=127
10800 On ch=7 n=84 v=127
10800 On ch=7 n=67 v=127
10804 Par ch=7 c=7 v=127
10816 Par ch=7 c=7 v=127
10832 Par ch=7 c=7 v=127
10868 Par ch=7 c=7 v=127
11044 Par ch=7 c=7 v=127
11056 Par ch=7 c=7 v=127
11108 Par ch=7 c=7 v=127
11136 Par ch=7 c=7 v=126
11148 Par ch=7 c=7 v=125
11172 Par ch=7 c=7 v=124
11212 Par ch=7 c=7 v=123
11224 Par ch=7 c=7 v=122
11276 Par ch=7 c=7 v=121
11300 Par ch=7 c=7 v=120
11312 Par ch=7 c=7 v=119
11328 Par ch=7 c=7 v=118
11340 Par ch=7 c=7 v=117
11364 Par ch=7 c=7 v=116
11392 Par ch=7 c=7 v=115
11416 Par ch=7 c=7 v=113
11440 Par ch=7 c=7 v=112
11456 Par ch=7 c=7 v=111
11480 Par ch=7 c=7 v=110
11492 Par ch=7 c=7 v=109
11520 Par ch=7 c=7 v=108
11532 Par ch=7 c=7 v=107
11544 Par ch=7 c=7 v=106
11568 Par ch=7 c=7 v=105
11584 Par ch=7 c=7 v=104
11596 Par ch=7 c=7 v=103
11608 Par ch=7 c=7 v=101
11620 Par ch=7 c=7 v=100
11632 Par ch=7 c=7 v=99
11660 Par ch=7 c=7 v=98
11684 Par ch=7 c=7 v=97
11712 Par ch=7 c=7 v=96
11736 Par ch=7 c=7 v=95
11760 Par ch=7 c=7 v=94
11776 Par ch=7 c=7 v=93
11800 Par ch=7 c=7 v=92
11812 Par ch=7 c=7 v=91
11852 Par ch=7 c=7 v=90
11900 Par ch=7 c=7 v=91
11916 Par ch=7 c=7 v=92
11928 Par ch=7 c=7 v=94
11940 Par ch=7 c=7 v=95
11952 Par ch=7 c=7 v=96
11964 Par ch=7 c=7 v=97
11976 Par ch=7 c=7 v=98
12000 Par ch=7 c=7 v=100
12016 Par ch=7 c=7 v=101
12028 Par ch=7 c=7 v=102
12040 Par ch=7 c=7 v=104
12052 Par ch=7 c=7 v=105
12064 Par ch=7 c=7 v=106
12080 Par ch=7 c=7 v=108
12092 Par ch=7 c=7 v=109
12104 Par ch=7 c=7 v=111
12116 Par ch=7 c=7 v=112
12128 Par ch=7 c=7 v=113
12144 Par ch=7 c=7 v=114
12156 Par ch=7 c=7 v=115
12168 Par ch=7 c=7 v=116
12184 Par ch=7 c=7 v=117
12224 Par ch=7 c=7 v=118
12248 Par ch=7 c=7 v=119
12284 Par ch=7 c=7 v=120
12360 Off ch=7 n=76 v=0
12360 Off ch=7 n=84 v=0
12368 Off ch=7 n=67 v=0
12384 Par ch=7 c=7 v=113
12400 Par ch=7 c=7 v=110
12412 Par ch=7 c=7 v=107
12424 Par ch=7 c=7 v=105
12436 Par ch=7 c=7 v=104
12448 Par ch=7 c=7 v=103
12464 Par ch=7 c=7 v=101
12476 Par ch=7 c=7 v=99
12484 Par ch=7 c=7 v=96
12496 Par ch=7 c=7 v=94
12512 Par ch=7 c=7 v=91
12524 Par ch=7 c=7 v=89
12536 Par ch=7 c=7 v=87
12548 Par ch=7 c=7 v=85
12560 Par ch=7 c=7 v=83
12576 Par ch=7 c=7 v=80
12588 Par ch=7 c=7 v=79
12596 Par ch=7 c=7 v=77
12608 Par ch=7 c=7 v=76
12636 Par ch=7 c=7 v=75
12648 Par ch=7 c=7 v=74
12660 Par ch=7 c=7 v=73
12672 Par ch=7 c=7 v=72
12736 Par ch=7 c=7 v=73
15696 Par ch=7 c=7 v=77
15708 Par ch=7 c=7 v=78
15720 Par ch=7 c=7 v=79
15732 Par ch=7 c=7 v=80
15760 Par ch=7 c=7 v=81
15772 Par ch=7 c=7 v=82
15812 Par ch=7 c=7 v=83
15824 Par ch=7 c=7 v=84
15840 Par ch=7 c=7 v=85
15852 Par ch=7 c=7 v=86
15864 Par ch=7 c=7 v=87
15876 Par ch=7 c=7 v=89
15888 Par ch=7 c=7 v=91
15904 Par ch=7 c=7 v=93
15916 Par ch=7 c=7 v=95
15928 Par ch=7 c=7 v=97
15940 Par ch=7 c=7 v=99
15952 Par ch=7 c=7 v=101
15968 Par ch=7 c=7 v=102
15976 Par ch=7 c=7 v=103
15988 Par ch=7 c=7 v=104
16000 Par ch=7 c=7 v=105
16016 Par ch=7 c=7 v=106
16052 Par ch=7 c=7 v=107
16180 Par ch=7 c=7 v=108
16540 Par ch=7 c=7 v=110
16604 Par ch=7 c=7 v=111
16640 Par ch=7 c=7 v=112
16704 Par ch=7 c=7 v=113
16796 Par ch=7 c=7 v=114
16804 On ch=7 n=76 v=127
16804 On ch=7 n=72 v=124
16832 Par ch=7 c=7 v=115
16848 Par ch=7 c=7 v=116
16872 Par ch=7 c=7 v=117
16880 Off ch=7 n=72 v=0
16884 Off ch=7 n=76 v=0
16908 Par ch=7 c=7 v=118
16928 On ch=7 n=72 v=93
16928 On ch=7 n=81 v=108
16928 On ch=7 n=77 v=127
16932 On ch=7 n=69 v=108
17008 Par ch=7 c=7 v=122
17112 Par ch=7 c=7 v=121
17136 Par ch=7 c=7 v=122
17164 Par ch=7 c=7 v=121
17188 Par ch=7 c=7 v=122
17216 Par ch=7 c=7 v=121
17240 Par ch=7 c=7 v=122
17368 Par ch=7 c=7 v=119
17380 Par ch=7 c=7 v=118
17420 Par ch=7 c=7 v=117
17472 Par ch=7 c=7 v=116
17548 Par ch=7 c=7 v=115
17560 Par ch=7 c=7 v=114
17584 Par ch=7 c=7 v=113
17600 Par ch=7 c=7 v=112
17612 Par ch=7 c=7 v=111
17624 Par ch=7 c=7 v=110
17636 Par ch=7 c=7 v=108
17648 Par ch=7 c=7 v=107
17664 Par ch=7 c=7 v=106
17676 Par ch=7 c=7 v=105
17712 Par ch=7 c=7 v=104
17728 Par ch=7 c=7 v=103
17740 Par ch=7 c=7 v=101
17752 Par ch=7 c=7 v=100
17764 Par ch=7 c=7 v=99
17788 Par ch=7 c=7 v=98
17816 Par ch=7 c=7 v=97
17828 Par ch=7 c=7 v=96
17840 Par ch=7 c=7 v=95
17864 Par ch=7 c=7 v=94
17904 Par ch=7 c=7 v=93
17928 Par ch=7 c=7 v=92
17940 Par ch=7 c=7 v=91
17980 Par ch=7 c=7 v=90
18004 Par ch=7 c=7 v=89
18044 Par ch=7 c=7 v=88
18056 Par ch=7 c=7 v=89
18080 Par ch=7 c=7 v=92
18096 Par ch=7 c=7 v=93
18112 Par ch=7 c=7 v=94
18124 Par ch=7 c=7 v=95
18144 Par ch=7 c=7 v=96
18160 Par ch=7 c=7 v=97
18172 Par ch=7 c=7 v=98
18184 Par ch=7 c=7 v=100
18212 Par ch=7 c=7 v=101
18224 Par ch=7 c=7 v=102
18236 Par ch=7 c=7 v=103
18248 Par ch=7 c=7 v=104
18260 Par ch=7 c=7 v=106
18272 Par ch=7 c=7 v=107
18288 Par ch=7 c=7 v=108
18312 Par ch=7 c=7 v=109
18324 Par ch=7 c=7 v=110
18336 Par ch=7 c=7 v=112
18352 Par ch=7 c=7 v=113
18364 Par ch=7 c=7 v=114
18388 Par ch=7 c=7 v=115
18396 Off ch=7 n=81 v=0
18400 Off ch=7 n=77 v=0
18400 Par ch=7 c=7 v=116
18416 Par ch=7 c=7 v=117
18428 Par ch=7 c=7 v=118
18448 Off ch=7 n=72 v=0
18452 Par ch=7 c=7 v=119
18456 Off ch=7 n=69 v=0
18464 On ch=7 n=77 v=114
18464 Par ch=7 c=7 v=121
18464 On ch=7 n=81 v=127
18492 Par ch=7 c=7 v=122
18504 Par ch=7 c=7 v=123
18528 Par ch=7 c=7 v=124
18544 Par ch=7 c=7 v=125
18580 Par ch=7 c=7 v=127
18580 On ch=7 n=83 v=99
18584 On ch=7 n=79 v=124
18592 Par ch=7 c=7 v=127
18600 Off ch=7 n=81 v=0
18604 Off ch=7 n=77 v=0
18608 Par ch=7 c=7 v=127
18620 Par ch=7 c=7 v=127
18680 Par ch=7 c=7 v=127
18688 On ch=7 n=84 v=93
18692 On ch=7 n=81 v=117
18708 Off ch=7 n=79 v=0
18708 Par ch=7 c=7 v=127
18720 Off ch=7 n=83 v=0
19576 On ch=7 n=86 v=125
19580 On ch=7 n=74 v=111
19600 Off ch=7 n=81 v=0
19608 Off ch=7 n=84 v=0
19840 Off ch=7 n=74 v=0
20000 On ch=7 n=76 v=127
20004 On ch=7 n=88 v=127
20032 Off ch=7 n=86 v=0
20192 Off ch=7 n=88 v=0
20192 On ch=7 n=77 v=127
20196 On ch=7 n=89 v=127
20204 Off ch=7 n=76 v=0
20392 Off ch=7 n=77 v=0
20412 On ch=7 n=91 v=127
20416 On ch=7 n=79 v=127
20448 Off ch=7 n=89 v=0
21252 Off ch=7 n=79 v=0
21324 On ch=7 n=88 v=127
21328 Off ch=7 n=91 v=0
21328 On ch=7 n=76 v=127
21416 On ch=7 n=77 v=127
21424 On ch=7 n=89 v=127
21432 Off ch=7 n=76 v=0
21440 Off ch=7 n=88 v=0
21520 On ch=7 n=79 v=127
21520 On ch=7 n=91 v=127
21528 Off ch=7 n=77 v=0
21552 Off ch=7 n=89 v=0
22252 Par ch=7 c=7 v=127
22260 Off ch=7 n=91 v=0
22272 On ch=7 n=93 v=127
22276 On ch=7 n=81 v=127
22292 Off ch=7 n=79 v=0
22304 Par ch=7 c=7 v=127
22724 Off ch=7 n=93 v=0
22736 On ch=7 n=83 v=127
22740 On ch=7 n=95 v=127
22748 Off ch=7 n=81 v=0
22880 Par ch=7 c=7 v=127
22952 Par ch=7 c=7 v=127
22976 Par ch=7 c=7 v=127
23200 Off ch=7 n=95 v=0
23200 On ch=7 n=84 v=127
23200 On ch=7 n=96 v=127
23204 On ch=7 n=76 v=127
23228 Off ch=7 n=83 v=0
23448 Par ch=7 c=7 v=127
23476 Par ch=7 c=7 v=127
23552 Par ch=7 c=7 v=127
23580 Par ch=7 c=7 v=127
23588 Par ch=7 c=7 v=127
23796 Par ch=7 c=7 v=127
23828 Par ch=7 c=7 v=127
24136 Par ch=7 c=7 v=127
24176 Par ch=7 c=7 v=127
24228 Par ch=7 c=7 v=127
24240 Par ch=7 c=7 v=127
24256 Par ch=7 c=7 v=127
24288 Par ch=7 c=7 v=126
24312 Par ch=7 c=7 v=125
24332 Par ch=7 c=7 v=124
24344 Par ch=7 c=7 v=123
24372 Par ch=7 c=7 v=122
24384 Par ch=7 c=7 v=121
24396 Par ch=7 c=7 v=120
24404 Par ch=7 c=7 v=119
24464 Par ch=7 c=7 v=117
24484 Par ch=7 c=7 v=116
24528 Par ch=7 c=7 v=115
24548 Par ch=7 c=7 v=114
24568 Par ch=7 c=7 v=113
24600 Par ch=7 c=7 v=112
24608 Par ch=7 c=7 v=111
24628 Par ch=7 c=7 v=110
24660 Par ch=7 c=7 v=109
24672 Par ch=7 c=7 v=108
24680 Par ch=7 c=7 v=107
24692 Par ch=7 c=7 v=106
24712 Par ch=7 c=7 v=105
24732 Par ch=7 c=7 v=104
24752 Par ch=7 c=7 v=103
24772 Par ch=7 c=7 v=102
24796 Par ch=7 c=7 v=101
24816 Par ch=7 c=7 v=100
24824 Par ch=7 c=7 v=99
24848 Par ch=7 c=7 v=98
24888 Par ch=7 c=7 v=97
24896 Par ch=7 c=7 v=96
24908 Par ch=7 c=7 v=95
24916 Par ch=7 c=7 v=94
24948 Par ch=7 c=7 v=93
24972 Par ch=7 c=7 v=92
24992 Par ch=7 c=7 v=91
25000 Par ch=7 c=7 v=90
25012 Par ch=7 c=7 v=89
25024 Par ch=7 c=7 v=87
25032 Par ch=7 c=7 v=85
25040 Par ch=7 c=7 v=83
25052 Par ch=7 c=7 v=82
25064 Par ch=7 c=7 v=81
25084 Par ch=7 c=7 v=79
25092 Par ch=7 c=7 v=78
25104 Par ch=7 c=7 v=77
25144 Par ch=7 c=7 v=79
25152 Par ch=7 c=7 v=82
25168 Par ch=7 c=7 v=84
25176 Par ch=7 c=7 v=86
25184 Par ch=7 c=7 v=88
25196 Par ch=7 c=7 v=89
25204 Par ch=7 c=7 v=91
25216 Par ch=7 c=7 v=92
25228 Par ch=7 c=7 v=93
25236 Par ch=7 c=7 v=94
25268 Par ch=7 c=7 v=95
25280 Par ch=7 c=7 v=96
25288 Par ch=7 c=7 v=97
25296 Par ch=7 c=7 v=98
25312 Par ch=7 c=7 v=99
25320 Par ch=7 c=7 v=100
25340 Par ch=7 c=7 v=101
25348 Par ch=7 c=7 v=103
25360 Par ch=7 c=7 v=104
25372 Par ch=7 c=7 v=105
25392 Par ch=7 c=7 v=106
25400 Par ch=7 c=7 v=107
25412 Par ch=7 c=7 v=108
25424 Par ch=7 c=7 v=109
25432 Par ch=7 c=7 v=110
25456 Par ch=7 c=7 v=111
25464 Par ch=7 c=7 v=112
25484 Par ch=7 c=7 v=113
25504 Par ch=7 c=7 v=114
25536 Par ch=7 c=7 v=115
25544 Par ch=7 c=7 v=116
25568 Par ch=7 c=7 v=117
25600 Par ch=7 c=7 v=118
25616 Par ch=7 c=7 v=119
25628 Par ch=7 c=7 v=120
25648 Par ch=7 c=7 v=121
25668 Par ch=7 c=7 v=122
25692 Par ch=7 c=7 v=123
25712 Par ch=7 c=7 v=124
25744 Par ch=7 c=7 v=125
25760 Par ch=7 c=7 v=126
25772 Par ch=7 c=7 v=127
25804 Par ch=7 c=7 v=127
25824 Par ch=7 c=7 v=127
25836 Par ch=7 c=7 v=127
25856 Par ch=7 c=7 v=127
25888 Par ch=7 c=7 v=127
25896 Par ch=7 c=7 v=127
25904 Par ch=7 c=7 v=127
25916 Par ch=7 c=7 v=127
25928 Par ch=7 c=7 v=127
25948 Par ch=7 c=7 v=127
26000 Par ch=7 c=7 v=127
26032 Par ch=7 c=7 v=127
26040 Par ch=7 c=7 v=127
26048 Par ch=7 c=7 v=127
26140 Off ch=7 n=76 v=0
26140 Off ch=7 n=96 v=0
26160 Off ch=7 n=84 v=0
26160 Meta TrkEnd
TrkEnd
MTrk
0 Meta TrkName "Contrabass"
0 Par ch=8 c=0 v=0
0 PrCh ch=8 p=48
0 Par ch=8 c=10 v=100
0 KeySig 0 major
0 Par ch=8 c=7 v=65
0 Pb ch=8 v=8192
0 Par ch=8 c=64 v=0
0 Par ch=8 c=1 v=0
0 On ch=8 n=24 v=55
1112 Par ch=8 c=7 v=65
4676 Par ch=8 c=7 v=64
4688 Par ch=8 c=7 v=66
4760 Par ch=8 c=7 v=67
4776 Par ch=8 c=7 v=66
5028 Par ch=8 c=7 v=69
5072 Par ch=8 c=7 v=70
5100 Par ch=8 c=7 v=71
5128 Par ch=8 c=7 v=72
5188 Par ch=8 c=7 v=73
5260 Par ch=8 c=7 v=74
5344 Par ch=8 c=7 v=75
5360 Par ch=8 c=7 v=76
5388 Par ch=8 c=7 v=77
5440 Par ch=8 c=7 v=78
5472 Par ch=8 c=7 v=79
5540 Par ch=8 c=7 v=80
5616 Par ch=8 c=7 v=81
5656 Par ch=8 c=7 v=82
5744 Par ch=8 c=7 v=83
5796 Par ch=8 c=7 v=84
5824 Par ch=8 c=7 v=85
5868 Par ch=8 c=7 v=86
5912 Par ch=8 c=7 v=87
5968 Par ch=8 c=7 v=86
6040 Par ch=8 c=7 v=87
6068 Par ch=8 c=7 v=89
6112 Par ch=8 c=7 v=90
6244 Par ch=8 c=7 v=91
6284 Par ch=8 c=7 v=92
6300 Par ch=8 c=7 v=91
6312 Par ch=8 c=7 v=89
6324 Par ch=8 c=7 v=87
6336 Par ch=8 c=7 v=86
6352 Par ch=8 c=7 v=85
6364 Par ch=8 c=7 v=84
6388 Par ch=8 c=7 v=83
6400 Par ch=8 c=7 v=82
6416 Par ch=8 c=7 v=81
6440 Par ch=8 c=7 v=80
6456 Par ch=8 c=7 v=79
6468 Par ch=8 c=7 v=78
6496 Par ch=8 c=7 v=77
6520 Par ch=8 c=7 v=76
6532 Par ch=8 c=7 v=75
6544 Par ch=8 c=7 v=74
6584 Par ch=8 c=7 v=73
6784 Par ch=8 c=7 v=70
6812 Par ch=8 c=7 v=69
6872 Par ch=8 c=7 v=68
6920 Par ch=8 c=7 v=67
6956 Par ch=8 c=7 v=66
7024 Par ch=8 c=7 v=65
7048 Par ch=8 c=7 v=66
7072 Par ch=8 c=7 v=65
7440 Par ch=8 c=7 v=63
7472 Par ch=8 c=7 v=62
7492 Par ch=8 c=7 v=63
7504 Par ch=8 c=7 v=62
7648 Off ch=8 n=24 v=0
7728 On ch=8 n=24 v=55
10672 Par ch=8 c=7 v=64
10736 Par ch=8 c=7 v=65
10764 Par ch=8 c=7 v=66
10788 Par ch=8 c=7 v=68
10800 Par ch=8 c=7 v=70
10816 Par ch=8 c=7 v=71
10828 Par ch=8 c=7 v=73
10840 Par ch=8 c=7 v=75
10852 Par ch=8 c=7 v=76
10864 Par ch=8 c=7 v=78
10880 Par ch=8 c=7 v=79
10904 Par ch=8 c=7 v=80
10964 Par ch=8 c=7 v=81
11040 Par ch=8 c=7 v=82
11080 Par ch=8 c=7 v=83
11284 Par ch=8 c=7 v=80
11296 Par ch=8 c=7 v=79
11312 Par ch=8 c=7 v=78
11324 Par ch=8 c=7 v=77
11348 Par ch=8 c=7 v=76
11360 Par ch=8 c=7 v=75
11376 Par ch=8 c=7 v=74
11388 Par ch=8 c=7 v=73
11452 Par ch=8 c=7 v=72
11464 Par ch=8 c=7 v=71
11488 Par ch=8 c=7 v=70
11528 Par ch=8 c=7 v=69
11580 Par ch=8 c=7 v=68
11604 Par ch=8 c=7 v=69
11656 Par ch=8 c=7 v=70
11704 Off ch=8 n=24 v=0
11708 Par ch=8 c=7 v=71
11784 Par ch=8 c=7 v=72
11824 Par ch=8 c=7 v=73
11908 Par ch=8 c=7 v=74
11948 Par ch=8 c=7 v=75
11972 Par ch=8 c=7 v=76
12000 Par ch=8 c=7 v=77
12040 Par ch=8 c=7 v=78
12104 Par ch=8 c=7 v=79
12180 Par ch=8 c=7 v=80
12228 Par ch=8 c=7 v=81
12256 On ch=8 n=24 v=55
12304 Par ch=8 c=7 v=80
12444 Par ch=8 c=7 v=83
12468 Par ch=8 c=7 v=81
12480 Par ch=8 c=7 v=80
12496 Par ch=8 c=7 v=79
12508 Par ch=8 c=7 v=77
12520 Par ch=8 c=7 v=76
12532 Par ch=8 c=7 v=75
12544 Par ch=8 c=7 v=74
12560 Par ch=8 c=7 v=72
12580 Par ch=8 c=7 v=71
12592 Par ch=8 c=7 v=69
12608 Par ch=8 c=7 v=68
12620 Par ch=8 c=7 v=67
12656 Par ch=8 c=7 v=66
13168 Par ch=8 c=7 v=64
13748 Off ch=8 n=24 v=0
13848 On ch=8 n=24 v=91
14136 Par ch=8 c=7 v=61
16880 Off ch=8 n=24 v=0
16984 On ch=8 n=29 v=127
19408 Par ch=8 c=7 v=85
19968 On ch=8 n=52 v=127
19968 On ch=8 n=60 v=127
19968 On ch=8 n=43 v=124
20080 Off ch=8 n=29 v=0
20112 Off ch=8 n=52 v=0
20156 Off ch=8 n=60 v=0
20256 On ch=8 n=62 v=127
20256 On ch=8 n=53 v=127
20288 Par ch=8 c=7 v=87
20436 On ch=8 n=55 v=127
20436 On ch=8 n=64 v=127
20456 Off ch=8 n=53 v=0
20464 Off ch=8 n=62 v=0
21236 Off ch=8 n=55 v=0
21264 Off ch=8 n=64 v=0
21312 On ch=8 n=60 v=127
21312 On ch=8 n=52 v=127
21392 Off ch=8 n=52 v=0
21424 Off ch=8 n=43 v=0
21424 On ch=8 n=62 v=127
21428 On ch=8 n=53 v=127
21444 Off ch=8 n=60 v=0
21496 Off ch=8 n=53 v=0
21544 On ch=8 n=64 v=127
21548 On ch=8 n=55 v=127
21556 On ch=8 n=43 v=127
21568 Off ch=8 n=62 v=0
22092 Par ch=8 c=7 v=89
22104 Par ch=8 c=7 v=90
22164 Off ch=8 n=64 v=0
22224 Off ch=8 n=55 v=0
22236 On ch=8 n=60 v=127
22240 On ch=8 n=52 v=127
22288 On ch=8 n=45 v=126
22300 Off ch=8 n=43 v=0
22428 Par ch=8 c=7 v=91
22464 Par ch=8 c=7 v=90
22508 Par ch=8 c=7 v=91
22644 Off ch=8 n=52 v=0
22656 Off ch=8 n=60 v=0
22672 On ch=8 n=59 v=127
22676 On ch=8 n=50 v=127
22716 On ch=8 n=43 v=125
22728 Off ch=8 n=45 v=0
23024 Par ch=8 c=7 v=92
23228 Off ch=8 n=59 v=0
23228 On ch=8 n=55 v=127
23232 On ch=8 n=48 v=127
23244 Off ch=8 n=50 v=0
23244 On ch=8 n=36 v=108
23252 Off ch=8 n=43 v=0
24544 Par ch=8 c=7 v=89
24556 Par ch=8 c=7 v=88
24564 Par ch=8 c=7 v=87
24596 Par ch=8 c=7 v=86
24616 Par ch=8 c=7 v=85
24640 Par ch=8 c=7 v=84
24668 Par ch=8 c=7 v=83
24676 Par ch=8 c=7 v=82
24700 Par ch=8 c=7 v=81
24720 Par ch=8 c=7 v=80
24740 Par ch=8 c=7 v=78
24760 Par ch=8 c=7 v=77
24784 Par ch=8 c=7 v=76
24820 Par ch=8 c=7 v=75
24876 Par ch=8 c=7 v=74
24884 Par ch=8 c=7 v=73
24944 Par ch=8 c=7 v=74
24960 Par ch=8 c=7 v=75
24988 Par ch=8 c=7 v=76
25244 Par ch=8 c=7 v=79
25276 Par ch=8 c=7 v=80
25296 Par ch=8 c=7 v=81
25308 Par ch=8 c=7 v=82
25316 Par ch=8 c=7 v=83
25344 Par ch=8 c=7 v=84
25388 Par ch=8 c=7 v=85
25420 Par ch=8 c=7 v=86
25460 Par ch=8 c=7 v=87
25492 Par ch=8 c=7 v=88
25544 Par ch=8 c=7 v=89
25572 Par ch=8 c=7 v=90
25604 Par ch=8 c=7 v=91
25636 Par ch=8 c=7 v=92
25656 Par ch=8 c=7 v=93
25688 Par ch=8 c=7 v=94
25728 Par ch=8 c=7 v=95
25748 Par ch=8 c=7 v=96
25760 Par ch=8 c=7 v=97
25808 Par ch=8 c=7 v=98
25820 Par ch=8 c=7 v=99
25832 Par ch=8 c=7 v=100
25860 Par ch=8 c=7 v=101
25892 Par ch=8 c=7 v=102
25904 Par ch=8 c=7 v=103
25944 Par ch=8 c=7 v=104
25964 Par ch=8 c=7 v=105
26016 Par ch=8 c=7 v=106
26036 Par ch=8 c=7 v=107
26064 Par ch=8 c=7 v=108
26100 Par ch=8 c=7 v=109
26120 Par ch=8 c=7 v=110
26124 Off ch=8 n=48 v=0
26128 Off ch=8 n=55 v=0
26128 Par ch=8 c=7 v=111
26160 Par ch=8 c=7 v=112
26192 Par ch=8 c=7 v=113
26224 Off ch=8 n=36 v=0
26224 Meta TrkEnd
TrkEnd
MTrk
0 Meta TrkName "Tympani"
0 Par ch=9 c=0 v=0
0 PrCh ch=9 p=47
0 Par ch=9 c=10 v=70
0 KeySig 0 major
0 Par ch=9 c=7 v=65
0 Pb ch=9 v=8192
0 Par ch=9 c=64 v=0
0 Par ch=9 c=1 v=0
5400 On ch=9 n=48 v=127
5424 Off ch=9 n=48 v=0
5432 On ch=9 n=50 v=127
5456 Off ch=9 n=50 v=0
5476 On ch=9 n=48 v=127
5488 Off ch=9 n=48 v=0
5500 On ch=9 n=50 v=127
5520 Off ch=9 n=50 v=0
5536 On ch=9 n=48 v=127
5552 Off ch=9 n=48 v=0
5556 On ch=9 n=50 v=127
5580 Off ch=9 n=50 v=0
5588 On ch=9 n=48 v=127
5608 Off ch=9 n=48 v=0
5612 On ch=9 n=50 v=127
5636 Off ch=9 n=50 v=0
5648 On ch=9 n=48 v=127
5668 Off ch=9 n=48 v=0
5672 On ch=9 n=50 v=127
5696 Off ch=9 n=50 v=0
5700 On ch=9 n=48 v=127
5720 Off ch=9 n=48 v=0
5728 On ch=9 n=50 v=127
5748 Off ch=9 n=50 v=0
5760 On ch=9 n=48 v=127
5780 Off ch=9 n=48 v=0
5780 On ch=9 n=50 v=127
5804 Off ch=9 n=50 v=0
5808 On ch=9 n=48 v=127
5832 Off ch=9 n=48 v=0
5840 On ch=9 n=50 v=127
5860 Off ch=9 n=50 v=0
5868 On ch=9 n=48 v=127
5888 Off ch=9 n=48 v=0
5888 On ch=9 n=50 v=127
5912 Off ch=9 n=50 v=0
5920 On ch=9 n=48 v=127
5940 Off ch=9 n=48 v=0
5944 On ch=9 n=50 v=127
5968 Off ch=9 n=50 v=0
5972 On ch=9 n=48 v=127
5992 Off ch=9 n=48 v=0
5996 On ch=9 n=50 v=127
6016 Off ch=9 n=50 v=0
6024 On ch=9 n=48 v=127
6048 Off ch=9 n=48 v=0
6048 On ch=9 n=50 v=127
6064 Off ch=9 n=50 v=0
6080 On ch=9 n=48 v=127
6096 On ch=9 n=50 v=127
6100 Off ch=9 n=48 v=0
6120 Off ch=9 n=50 v=0
6128 On ch=9 n=48 v=127
6140 Off ch=9 n=48 v=0
6176 On ch=9 n=48 v=127
6212 Off ch=9 n=48 v=0
6292 On ch=9 n=43 v=127
6328 Off ch=9 n=43 v=0
6412 On ch=9 n=48 v=127
6448 Off ch=9 n=48 v=0
6532 On ch=9 n=43 v=127
6576 Off ch=9 n=43 v=0
6652 On ch=9 n=48 v=127
6688 Off ch=9 n=48 v=0
6776 On ch=9 n=43 v=127
6816 Off ch=9 n=43 v=0
6896 On ch=9 n=48 v=127
6932 Off ch=9 n=48 v=0
7024 On ch=9 n=43 v=127
7064 Off ch=9 n=43 v=0
7148 On ch=9 n=48 v=127
7184 Off ch=9 n=48 v=0
7284 On ch=9 n=43 v=127
7324 Off ch=9 n=43 v=0
7412 On ch=9 n=48 v=127
7448 Off ch=9 n=48 v=0
7548 On ch=9 n=43 v=127
7584 Off ch=9 n=43 v=0
7696 On ch=9 n=48 v=127
7780 Off ch=9 n=48 v=0
8416 Par ch=9 c=7 v=79
8424 Par ch=9 c=7 v=78
8432 Par ch=9 c=7 v=77
8444 Par ch=9 c=7 v=76
8492 Par ch=9 c=7 v=75
11520 On ch=9 n=48 v=127
11548 Off ch=9 n=48 v=0
11560 On ch=9 n=50 v=127
11580 Off ch=9 n=50 v=0
11596 On ch=9 n=48 v=127
11612 Off ch=9 n=48 v=0
11632 On ch=9 n=50 v=127
11652 Off ch=9 n=50 v=0
11664 On ch=9 n=48 v=127
11684 Off ch=9 n=48 v=0
11696 On ch=9 n=50 v=127
11724 Off ch=9 n=50 v=0
11728 On ch=9 n=48 v=127
11748 Off ch=9 n=48 v=0
11760 On ch=9 n=50 v=127
11788 Off ch=9 n=50 v=0
11792 On ch=9 n=48 v=127
11812 Off ch=9 n=48 v=0
11824 On ch=9 n=50 v=127
11844 Off ch=9 n=50 v=0
11852 On ch=9 n=48 v=127
11872 Off ch=9 n=48 v=0
11880 On ch=9 n=50 v=127
11904 Off ch=9 n=50 v=0
11912 On ch=9 n=48 v=127
11936 Off ch=9 n=48 v=0
11936 On ch=9 n=50 v=127
11960 Off ch=9 n=50 v=0
11968 On ch=9 n=48 v=127
11996 Off ch=9 n=48 v=0
12000 On ch=9 n=50 v=127
12024 Off ch=9 n=50 v=0
12032 On ch=9 n=48 v=127
12052 Off ch=9 n=48 v=0
12056 On ch=9 n=50 v=127
12080 Off ch=9 n=50 v=0
12088 On ch=9 n=48 v=127
12112 Off ch=9 n=48 v=0
12116 On ch=9 n=50 v=127
12140 Off ch=9 n=50 v=0
12144 On ch=9 n=48 v=127
12164 Off ch=9 n=48 v=0
12176 On ch=9 n=50 v=127
12192 On ch=9 n=48 v=127
12200 Off ch=9 n=50 v=0
12216 Off ch=9 n=48 v=0
12224 On ch=9 n=50 v=127
12236 On ch=9 n=48 v=127
12252 Off ch=9 n=50 v=0
12256 Off ch=9 n=48 v=0
12292 On ch=9 n=48 v=127
12328 Off ch=9 n=48 v=0
12428 On ch=9 n=43 v=127
12464 Off ch=9 n=43 v=0
12556 On ch=9 n=48 v=127
12584 Off ch=9 n=48 v=0
12676 On ch=9 n=43 v=127
12716 Off ch=9 n=43 v=0
12800 On ch=9 n=48 v=127
12832 Off ch=9 n=48 v=0
12916 On ch=9 n=43 v=127
12948 Off ch=9 n=43 v=0
13040 On ch=9 n=48 v=127
13072 Off ch=9 n=48 v=0
13168 On ch=9 n=43 v=127
13204 Off ch=9 n=43 v=0
13296 On ch=9 n=48 v=127
13328 Off ch=9 n=48 v=0
13424 On ch=9 n=43 v=127
13456 Off ch=9 n=43 v=0
13556 On ch=9 n=48 v=127
13588 Off ch=9 n=48 v=0
13688 On ch=9 n=43 v=127
13720 Off ch=9 n=43 v=0
13828 On ch=9 n=48 v=127
13880 Off ch=9 n=48 v=0
17660 On ch=9 n=48 v=127
17680 Off ch=9 n=48 v=0
17704 On ch=9 n=50 v=127
17724 Off ch=9 n=50 v=0
17744 On ch=9 n=48 v=127
17756 Off ch=9 n=48 v=0
17776 On ch=9 n=50 v=127
17792 Off ch=9 n=50 v=0
17804 On ch=9 n=48 v=127
17820 Off ch=9 n=48 v=0
17840 On ch=9 n=50 v=127
17856 Off ch=9 n=50 v=0
17872 On ch=9 n=48 v=127
17888 Off ch=9 n=48 v=0
17900 On ch=9 n=50 v=127
17920 Off ch=9 n=50 v=0
17936 On ch=9 n=48 v=127
17952 Off ch=9 n=48 v=0
17964 On ch=9 n=50 v=127
17984 Off ch=9 n=50 v=0
17996 On ch=9 n=48 v=127
18016 Off ch=9 n=48 v=0
18020 On ch=9 n=50 v=127
18048 Off ch=9 n=50 v=0
18052 On ch=9 n=48 v=127
18076 Off ch=9 n=48 v=0
18080 On ch=9 n=50 v=127
18104 Off ch=9 n=50 v=0
18112 On ch=9 n=48 v=127
18140 Off ch=9 n=48 v=0
18144 On ch=9 n=50 v=127
18168 Off ch=9 n=50 v=0
18176 On ch=9 n=48 v=127
18196 Off ch=9 n=48 v=0
18204 On ch=9 n=50 v=127
18228 Off ch=9 n=50 v=0
18232 On ch=9 n=48 v=127
18256 Off ch=9 n=48 v=0
18264 On ch=9 n=50 v=127
18288 Off ch=9 n=50 v=0
18288 On ch=9 n=48 v=127
18312 Off ch=9 n=48 v=0
18320 On ch=9 n=50 v=127
18340 On ch=9 n=48 v=127
18344 Off ch=9 n=50 v=0
18364 Off ch=9 n=48 v=0
18376 On ch=9 n=50 v=127
18392 On ch=9 n=48 v=127
18400 Off ch=9 n=50 v=0
18412 Off ch=9 n=48 v=0
18432 On ch=9 n=50 v=127
18432 On ch=9 n=48 v=127
18452 Off ch=9 n=50 v=0
18452 Off ch=9 n=48 v=0
19376 On ch=9 n=50 v=127
19404 Off ch=9 n=50 v=0
19408 On ch=9 n=48 v=127
19428 Off ch=9 n=48 v=0
19440 On ch=9 n=50 v=127
19460 Off ch=9 n=50 v=0
19460 On ch=9 n=48 v=127
19484 Off ch=9 n=48 v=0
19492 On ch=9 n=50 v=127
19512 On ch=9 n=48 v=127
19516 Off ch=9 n=50 v=0
19536 Off ch=9 n=48 v=0
19540 On ch=9 n=50 v=127
19564 On ch=9 n=48 v=127
19568 Off ch=9 n=50 v=0
19588 Off ch=9 n=48 v=0
19592 On ch=9 n=50 v=127
19616 Off ch=9 n=50 v=0
19616 On ch=9 n=48 v=127
19640 Off ch=9 n=48 v=0
19648 On ch=9 n=50 v=127
19676 On ch=9 n=48 v=127
19680 Off ch=9 n=50 v=0
19696 Off ch=9 n=48 v=0
19700 On ch=9 n=50 v=127
19728 Off ch=9 n=50 v=0
19728 On ch=9 n=48 v=127
19752 Off ch=9 n=48 v=0
19760 On ch=9 n=50 v=127
19784 Off ch=9 n=50 v=0
19784 On ch=9 n=48 v=127
19808 Off ch=9 n=48 v=0
19816 On ch=9 n=50 v=127
19840 On ch=9 n=48 v=127
19844 Off ch=9 n=50 v=0
19864 Off ch=9 n=48 v=0
19872 On ch=9 n=50 v=127
19892 On ch=9 n=48 v=127
19896 Off ch=9 n=50 v=0
19916 Off ch=9 n=48 v=0
19920 On ch=9 n=50 v=127
19944 On ch=9 n=48 v=127
19948 Off ch=9 n=50 v=0
19968 Off ch=9 n=48 v=0
19968 On ch=9 n=50 v=127
19992 Off ch=9 n=50 v=0
19996 On ch=9 n=48 v=127
20012 Off ch=9 n=48 v=0
20016 On ch=9 n=50 v=127
20048 Off ch=9 n=50 v=0
20052 On ch=9 n=48 v=127
20100 Off ch=9 n=48 v=0
21160 On ch=9 n=52 v=127
21184 Off ch=9 n=52 v=0
21340 On ch=9 n=48 v=127
21340 Par ch=9 c=7 v=98
21372 Off ch=9 n=48 v=0
21572 On ch=9 n=43 v=127
22200 Off ch=9 n=43 v=0
22304 On ch=9 n=48 v=127
22324 Off ch=9 n=48 v=0
22764 On ch=9 n=43 v=127
23044 Off ch=9 n=43 v=0
23204 On ch=9 n=36 v=127
23204 Par ch=9 c=7 v=65
23248 Off ch=9 n=36 v=0
23732 On ch=9 n=48 v=127
23756 Off ch=9 n=48 v=0
23772 On ch=9 n=50 v=127
23792 Off ch=9 n=50 v=0
23820 On ch=9 n=48 v=127
23840 Off ch=9 n=48 v=0
23856 On ch=9 n=50 v=127
23872 Off ch=9 n=50 v=0
23896 On ch=9 n=48 v=127
23916 Off ch=9 n=48 v=0
23936 On ch=9 n=50 v=127
23952 Off ch=9 n=50 v=0
23972 On ch=9 n=48 v=127
23988 Off ch=9 n=48 v=0
24012 On ch=9 n=50 v=127
24032 Off ch=9 n=50 v=0
24048 On ch=9 n=48 v=127
24068 Off ch=9 n=48 v=0
24084 On ch=9 n=50 v=127
24108 Off ch=9 n=50 v=0
24120 On ch=9 n=48 v=127
24144 Off ch=9 n=48 v=0
24160 On ch=9 n=50 v=127
24184 Off ch=9 n=50 v=0
24196 On ch=9 n=48 v=127
24220 Off ch=9 n=48 v=0
24236 On ch=9 n=50 v=127
24256 Off ch=9 n=50 v=0
24272 On ch=9 n=48 v=127
24288 Off ch=9 n=48 v=0
24304 On ch=9 n=50 v=127
24328 Off ch=9 n=50 v=0
24344 On ch=9 n=48 v=127
24368 Off ch=9 n=48 v=0
24380 On ch=9 n=50 v=127
24400 Off ch=9 n=50 v=0
24420 On ch=9 n=48 v=127
24440 Off ch=9 n=48 v=0
24460 On ch=9 n=50 v=127
24480 Off ch=9 n=50 v=0
24496 On ch=9 n=48 v=127
24512 Off ch=9 n=48 v=0
24532 On ch=9 n=50 v=127
24552 Off ch=9 n=50 v=0
24572 On ch=9 n=48 v=127
24588 Off ch=9 n=48 v=0
24608 On ch=9 n=50 v=127
24624 Off ch=9 n=50 v=0
24648 On ch=9 n=48 v=127
24656 Off ch=9 n=48 v=0
24684 On ch=9 n=50 v=127
24692 Off ch=9 n=50 v=0
24724 On ch=9 n=48 v=127
24736 Off ch=9 n=48 v=0
24756 On ch=9 n=50 v=127
24772 Off ch=9 n=50 v=0
24800 On ch=9 n=48 v=127
24808 Off ch=9 n=48 v=0
24832 On ch=9 n=50 v=127
24844 Off ch=9 n=50 v=0
24876 On ch=9 n=48 v=127
24884 Off ch=9 n=48 v=0
24920 On ch=9 n=50 v=127
24928 Off ch=9 n=50 v=0
24964 On ch=9 n=48 v=127
24976 Off ch=9 n=48 v=0
25004 On ch=9 n=50 v=127
25012 Off ch=9 n=50 v=0
25048 On ch=9 n=48 v=127
25064 Off ch=9 n=48 v=0
25088 On ch=9 n=50 v=127
25096 Off ch=9 n=50 v=0
25132 On ch=9 n=48 v=127
25140 Off ch=9 n=48 v=0
25172 On ch=9 n=50 v=127
25184 Off ch=9 n=50 v=0
25212 On ch=9 n=48 v=127
25228 Off ch=9 n=48 v=0
25248 On ch=9 n=50 v=127
25264 Off ch=9 n=50 v=0
25296 On ch=9 n=48 v=127
25312 Off ch=9 n=48 v=0
25328 On ch=9 n=50 v=127
25344 Off ch=9 n=50 v=0
25368 On ch=9 n=48 v=127
25392 Off ch=9 n=48 v=0
25400 On ch=9 n=50 v=127
25420 Off ch=9 n=50 v=0
25440 On ch=9 n=48 v=127
25460 Off ch=9 n=48 v=0
25472 On ch=9 n=50 v=127
25488 Off ch=9 n=50 v=0
25504 On ch=9 n=48 v=127
25528 Off ch=9 n=48 v=0
25536 On ch=9 n=50 v=127
25560 Off ch=9 n=50 v=0
25572 On ch=9 n=48 v=127
25600 Off ch=9 n=48 v=0
25612 On ch=9 n=50 v=127
25632 Off ch=9 n=50 v=0
25644 On ch=9 n=48 v=127
25664 Off ch=9 n=48 v=0
25676 On ch=9 n=50 v=127
25696 Off ch=9 n=50 v=0
25712 On ch=9 n=48 v=127
25732 Off ch=9 n=48 v=0
25744 On ch=9 n=50 v=127
25764 Off ch=9 n=50 v=0
25776 On ch=9 n=48 v=127
25800 Off ch=9 n=48 v=0
25812 On ch=9 n=50 v=127
25836 Off ch=9 n=50 v=0
25844 On ch=9 n=48 v=127
25868 Off ch=9 n=48 v=0
25876 On ch=9 n=50 v=127
25896 Off ch=9 n=50 v=0
25912 On ch=9 n=48 v=127
25932 Off ch=9 n=48 v=0
25940 On ch=9 n=50 v=127
25960 Off ch=9 n=50 v=0
25972 On ch=9 n=48 v=127
25992 Off ch=9 n=48 v=0
26000 On ch=9 n=50 v=127
26020 Off ch=9 n=50 v=0
26032 On ch=9 n=48 v=127
26052 Off ch=9 n=48 v=0
26064 On ch=9 n=50 v=127
26084 Off ch=9 n=50 v=0
26092 On ch=9 n=48 v=127
26112 Off ch=9 n=48 v=0
26112 Meta TrkEnd
TrkEnd
MTrk
0 Meta TrkName "Cymbal"
0 Par ch=10 c=0 v=0
0 PrCh ch=10 p=0
0 Par ch=10 c=10 v=20
0 KeySig 0 major
0 Par ch=10 c=7 v=100
0 Pb ch=10 v=8192
0 Par ch=10 c=64 v=0
0 Par ch=10 c=1 v=0
4644 On ch=10 n=49 v=127
5208 Off ch=10 n=49 v=0
10796 On ch=10 n=57 v=127
11156 Off ch=10 n=57 v=0
16960 On ch=10 n=57 v=127
17388 Off ch=10 n=57 v=0
20052 On ch=10 n=57 v=127
20384 Off ch=10 n=57 v=0
23180 On ch=10 n=57 v=127
23652 Off ch=10 n=57 v=0
23652 Meta TrkEnd
TrkEnd
MTrk
0 Meta TrkName "copyright '93"
0 KeySig 0 major
0 Pb ch=11 v=8192
0 Par ch=11 c=64 v=0
0 Par ch=11 c=1 v=0
0 Meta TrkEnd
TrkEnd
MTrk
0 Meta TrkName "Michael Ford   "
0 KeySig 0 major
0 Pb ch=12 v=8192
0 Par ch=12 c=64 v=0
0 Par ch=12 c=1 v=0
0 Meta TrkEnd
TrkEnd
MTrk
0 Meta TrkName "   Archives"
0 KeySig 0 major
0 Pb ch=13 v=8192
0 Par ch=13 c=64 v=0
0 Par ch=13 c=1 v=0
0 Meta TrkEnd
TrkEnd
MTrk
0 Meta TrkName "215 8899744"
0 KeySig 0 major
0 Pb ch=14 v=8192
0 Par ch=14 c=64 v=0
0 Par ch=14 c=1 v=0
0 Meta TrkEnd
TrkEnd
MTrk
0 KeySig 0 major
0 Meta TrkEnd
TrkEnd
MTrk
0 KeySig 0 major
0 Meta TrkEnd
TrkEnd
MTrk
0 KeySig 0 major
0 Meta TrkEnd
TrkEnd